<svg version="1.1" xmlns="http://www.w3.org/2000/svg" xmlns:xlink="http://www.w3.org/1999/xlink" x="0px" y="0px" viewBox="0 0 130 25.7" enable-background="new 0 0 130 25.7" xml:space="preserve" width="4290.395877080721" height="842.7875768194046">
<g id="db">
	<g>
		<g>
			<polygon fill="rgb(220, 255, 101)" class="color-1" data-color="#FEE266" points="111.8,17.8 111.8,20.4 120.8,17.8 			"></polygon>
			<polygon fill="rgb(220, 255, 101)" class="color-1" data-color="#FEE266" points="9.2,17.8 18.2,20.4 18.2,17.8 			"></polygon>
		</g>
		<g>
			<polygon fill="rgb(141, 193, 46)" class="color-2" data-color="#8CCDB0" points="9.2,7.9 9.2,10.6 9.2,17.8 18.2,17.8 111.8,17.8 120.8,17.8 120.8,10.6 120.8,7.9 			"></polygon>
		</g>
		<g>
			<polygon fill="rgb(141, 193, 46)" class="color-3" data-color="#318BA2" points="9.2,17.8 9.2,10.6 0,10.6 4.5,15.5 0,20.4 9.2,20.4 18.2,20.4 			"></polygon>
			<polygon fill="rgb(141, 193, 46)" class="color-3" data-color="#318BA2" points="130,10.6 120.8,10.6 120.8,17.8 111.8,20.4 120.8,20.4 130,20.4 125.5,15.5 			"></polygon>
		</g>
		<g>
			<path fill="rgb(220, 255, 101)" class="color-1" data-color="#FEE266" d="M75.8,3.8c-0.1,0-0.2,0-0.3,0C69.7,3.8,65,2.1,65,0c0,2.1-4.7,3.8-10.6,3.8c-0.1,0-0.2,0-0.3,0
				c0,3.3,0,7.3,0,9.7c0,0.6,0,1.1,0.1,1.6c0.2,2.4,0.8,4.2,1.6,5.4c0,0,0,0,0,0.1c1.1,1.6,2.6,2.5,4,3c2.1,0.8,4.1,1.1,5.1,2.1
				c2.2-2.6,10.8-0.5,10.8-12.2c0-1.5,0-3.6,0-5.8C75.8,6.3,75.8,5,75.8,3.8z"></path>
		</g>
	</g>
	<g>
		<g>
		</g>
		<g>
		</g>
		<g>
			<g>
			</g>
		</g>
	</g>
</g>
</svg>