<?xml version="1.0" encoding="utf-8"?>
<!-- Generator: Adobe Illustrator 16.0.0, SVG Export Plug-In . SVG Version: 6.00 Build 0)  -->
<!DOCTYPE svg PUBLIC "-//W3C//DTD SVG 1.1//EN" "http://www.w3.org/Graphics/SVG/1.1/DTD/svg11.dtd">
<svg version="1.1" id="图层_1" xmlns="http://www.w3.org/2000/svg" xmlns:xlink="http://www.w3.org/1999/xlink" x="0px" y="0px"
	 width="4344.804px" height="900.941px" viewBox="0 0 4344.804 900.941" enable-background="new 0 0 4344.804 900.941"
	 xml:space="preserve">
<g id="hx">
	<g id="ne" transform="translate(0,0) scale(1, 1)">
		<g>
			<path fill="#C49B95" d="M3521.746,900.941h821.293l-203.771-260.662l203.771-261.697h-915.422v428.231
				C3427.617,857.498,3470.027,900.941,3521.746,900.941"/>
		</g>
		<g>
			<path opacity="0.5" enable-background="new    " d="M3427.617,522.36h383.754c52.752,0,95.162,42.409,95.162,95.162
				c0,52.754-43.443,95.163-95.162,95.163h-289.625c-52.754,0-95.164,43.443-95.164,95.162
				C3427.617,711.651,3427.617,616.488,3427.617,522.36"/>
		</g>
		<g>
			<path fill="#E9B7AE" d="M3810.335,0h-383.754v522.36h383.754c52.754,0,95.162,42.409,95.162,95.162c0-173.774,0-347.55,0-522.359
				C3905.498,43.444,3863.089,0,3810.335,0z"/>
		</g>
	</g>
	<g id="nw" transform="translate(0,0) scale(1, 1)">
		<g>
			<path fill="#C49B95" d="M824.093,900.941H2.799l203.772-260.662L2.799,378.582h915.422v428.231
				C919.256,857.498,875.812,900.941,824.093,900.941"/>
		</g>
		<g>
			<path opacity="0.5" enable-background="new    " d="M919.256,522.36H534.468c-52.753,0-95.163,42.409-95.163,95.162
				c0,52.754,43.444,95.163,95.163,95.163h289.625c52.753,0,95.163,43.443,95.163,95.162
				C919.256,711.651,919.256,616.488,919.256,522.36"/>
		</g>
		<g>
			<path fill="#E9B7AE" d="M534.468,0c-52.753,0-95.163,43.444-95.163,95.163c0,173.774,0,347.55,0,522.359
				c0-52.753,43.444-95.162,95.163-95.162h383.753V0H534.468z"/>
		</g>
	</g>
	<g id="n" transform="translate(0,0) scale(1, 1)">
		<g>
			<rect x="895.005" y="0" fill="#E9B7AE" width="2557.896" height="522.36"/>
		</g>
		<g>
			<rect x="919.256" y="62.062" fill="none" width="2509.396" height="387.892"/>
		</g>
	</g>
</g>
</svg>
