<svg version="1.1" id="" xmlns="http://www.w3.org/2000/svg" xmlns:xlink="http://www.w3.org/1999/xlink" x="0px" y="0px" viewBox="0 0 269.2 269.4" enable-background="new 0 0 269.2 269.4" xml:space="preserve" data-svg-colors="#20C4CB"><g id="ry" transform="scale(1,1)"><path fill="#20C4CB" d="M179.9,0c-29.7,31.6-59.3,63-89.2,94.8c1.3,0.1,2.1,0.1,2.9,0.1c12.8,0,25.5,0,38.3,0c1.7,0,2.4,0.3,2.3,2.2c-0.1,2.6,0.1,5.3,0.1,7.9c0,47.7,0,95.5,0.1,143.2c0,0.7-0.2,1.5,0.4,2.5c0.4-0.5,0.6-0.9,0.9-1.2c22.4-23.8,44.6-47.8,67.4-71.3c14.7-15.1,22.3-32.8,22.3-53.8c0-9,0.1-18.1,0-27.1c0-2,0.6-2.4,2.5-2.4c12.8,0.1,25.5,0.1,38.3,0.1c0.9,0,1.7,0,3.1,0C239.2,63,209.5,31.5,179.9,0z" class="color-1"/><path fill="#20C4CB" d="M108.9,193.2c-21.6,0.1-43.2,0.2-64.9,0.2c-13.7,0-27.3,0-41,0c-0.9,0-1.8-0.3-2.8,0.3c0.5,0.6,0.9,1,1.3,1.5c10.3,11.4,20.6,22.9,31,34.2c1.3,1.4,1.4,2.3,0,3.8c-8.8,9.5-17.4,19.1-26.1,28.7c-2.1,2.3-4.2,4.7-6.5,7.3c0.8,0.1,1,0.1,1.2,0.1c21,0,41.9,0,62.9,0c4.9,0,9.8-0.3,14.6-1.2c8.8-1.7,16.8-5.2,22.4-12.6c5.4-7.2,7.5-15.7,8.9-24.5c1.9-11.7,1.4-23.5,1.5-35.2C111.4,193.8,111,193.2,108.9,193.2z" class="color-1"/></g></svg>