<svg version="1.1" xmlns="http://www.w3.org/2000/svg" xmlns:xlink="http://www.w3.org/1999/xlink" x="0px" y="0px"
	 viewBox="0 0 595.3 544.9" enable-background="new 0 0 595.3 544.9" xml:space="preserve">
<g id="ry" transform="translate(0,0) scale(1,1)">
	<path fill="#DDE582" class="color-1" data-color="#DDE582" d="M19.7,544.9L8.8,507.7C2.2,485.9,0,464,0,442.1c0-164.1,172.9-302,402.7-321.7V0l192.6,192.6L402.7,385.2
		V267c-183.8,17.5-334.8,116-372,240.7L19.7,544.9z M424.6,54.7v87.5h-10.9c-223.2,17.5-391.7,146.6-391.7,302
		c0,8.8,0,15.3,2.2,24.1C81,348,229.8,260.4,413.6,247.3h10.9V337L564.6,197L424.6,54.7z"/>
</g>
</svg>
