<svg version="1.1" xmlns="http://www.w3.org/2000/svg" xmlns:xlink="http://www.w3.org/1999/xlink" x="0px" y="0px"
	 viewBox="0 0 114.1 138.2" enable-background="new 0 0 114.1 138.2" xml:space="preserve">
<g id="ry" transform="scale(1,1)">
	<path fill="#F6931E" d="M55.1,138.2c11.6-12.3,19.7-41.4,17.5-55.8c8.8,7.4,9.6,16.5,9.6,16.5C122.2,43.4,64.3-14.2,0,12.9
		C56.1-26.8,150.8,30.7,99,108c0,0,7.2,0.6,15.1-1.8C105.8,118.5,86.9,134.3,55.1,138.2z"/>
	<linearGradient id="arrow_1_" gradientUnits="userSpaceOnUse" x1="140.3864" y1="-43.6055" x2="-8.4908" y2="44.5265">
		<stop  offset="0.5333" style="stop-color:#294A69"/>
		<stop  offset="0.563" style="stop-color:#225A74"/>
		<stop  offset="0.6245" style="stop-color:#157486"/>
		<stop  offset="0.6919" style="stop-color:#0C8994"/>
		<stop  offset="0.7674" style="stop-color:#05989E"/>
		<stop  offset="0.8574" style="stop-color:#01A0A4"/>
		<stop  offset="1" style="stop-color:#00A3A6"/>
	</linearGradient>
	<path fill="url(#arrow_1_)" d="M0,12.9c15.4-1.9,21.7,8.3,16.1,17.8C23.2,24.4,49.2,8.2,76,21C58.1,6,29.7,0.4,0,12.9z"/>
</g>
</svg>
