<svg version="1.1" xmlns="http://www.w3.org/2000/svg" xmlns:xlink="http://www.w3.org/1999/xlink" x="0px" y="0px" viewBox="0 0 110.6 156.8" enable-background="new 0 0 110.6 156.8" xml:space="preserve" data-svg-colors="#FC60AE"><g id="ry" transform="scale(1,1)"><path fill="#FC60AE" d="M12.4,14.2c0.4,5.2,2.6,10.6,3.8,15.6c1.3,5.2,2.5,10.4,3.7,15.7c2.2,10,4.2,20,6.3,30c-2.4-0.4-4.8-0.7-7.2-1c-2.3-0.3-4.8-0.8-7-0.3c-1.2,0.2-1.3,1.8-0.2,2.3c0.7,0.3,1.4,0.5,2.2,0.6c-0.1,0.1-0.1,0.1-0.2,0.2c-0.7-0.9-2.2-0.1-2,1c0.5,3,2.1,5.7,3.3,8.4c1.4,3.1,2.8,6.1,4.2,9.2c2.6,5.7,5.2,11.4,7.9,17.1c5.3,11.3,10.2,23.4,16.9,34c0.4,0.6,1.1,0.5,1.5,0.1c0.2-0.1,0.4-0.2,0.5-0.4c4-4.8,7.3-10.3,10.8-15.5c3.5-5.2,7-10.5,10.5-15.7c6.9-10.5,13.8-21,20-31.9c1-0.3,1.3-2,0.1-2.3c-2.4-0.7-4.8-1.2-7.3-1.5c-1.6-0.2-3.3-0.6-5-0.4C81.8,66,87.7,52,93.4,38c0.3-0.1,0.5-0.4,0.3-0.7c1.9-4.5,3.7-9.1,5.6-13.6c0.3-0.7,0-1.3-0.4-1.7c0.2-0.7-0.3-1.5-1.3-1.4c-7.6,0.9-15.2,3-22.7,4.7c-7.5,1.8-15,3.6-22.5,5.6c-5.7-4.7-12-8.7-18.5-12.3c-6-3.3-12.7-7.4-19.4-8.8c-1.2-0.3-1.9,1.4-1.2,2.2c-0.1,0.2-0.1,0.4-0.2,0.6c0,0.1,0,0.1,0,0.2C12.7,13.1,12.3,13.6,12.4,14.2z M22.7,43.7c-0.7-3.1-1.4-6.1-2.1-9.2C38.3,47.7,56,60.9,74.3,73.3c0.2,0.1,0.3,0.1,0.4,0.1c-0.8,2-1.6,4-2.3,6.1c-6.7-4.7-13.6-9.3-20.2-14.1c-5-3.7-10-7.4-15-11.2c-4.4-3.4-9-8.1-14.1-10.4C22.9,43.7,22.8,43.7,22.7,43.7z M48.9,137.2c-1.7-1.2-3.3-2.3-5-3.6c-2-1.6-3.9-3.4-6-4.9c-1-2.1-2-4.2-3-6.3c5,4.3,10.7,8.4,16.3,11.3C50.4,134.9,49.7,136,48.9,137.2z M44.8,143.4c-1.5-3.7-3.3-7.4-5.1-11c2.6,2.2,5.6,4.1,8.5,5.8C47,139.9,45.9,141.6,44.8,143.4z M54.3,129.4c-0.8,1.2-1.7,2.4-2.5,3.6c-3-2.5-6.2-4.6-9.3-6.9c-3.1-2.3-6-4.9-9.2-7.2c-1-2.1-2-4.2-3-6.2c3.2,2.6,7.2,4.7,10.6,6.9c4.6,3,9.2,6.1,13.9,9C54.6,128.9,54.5,129.1,54.3,129.4z M55.3,127.8c-4.4-3.3-9-6.4-13.5-9.5c-4.1-2.8-8.2-6.5-12.8-8.4c-1.2-2.5-2.3-5-3.5-7.5c4.9,3.9,10.1,7.3,15.3,10.8c5.6,3.7,11.3,7.4,17.2,10.7C57.1,125.2,56.2,126.5,55.3,127.8z M58.6,122.9c-5.6-3.7-11.3-7.4-16.8-11.2c-6-4.2-11.8-8.8-17.8-12.9c0,0-0.1,0-0.1-0.1c-0.7-1.6-1.5-3.2-2.2-4.8c-0.5-1.1-1-2.2-1.5-3.3c12.9,10.4,26.8,19.9,41,28.4C60.3,120.4,59.4,121.7,58.6,122.9z M61.6,118.4c-14.4-10-28.5-20.4-42.5-30.9c-0.2-0.1-0.3-0.2-0.5-0.2c-0.3-0.6-0.6-1.3-0.9-1.9c-0.8-1.8-1.5-3.7-2.4-5.4c7.4,6.5,15.9,12.2,23.9,17.8c8.2,5.7,16.6,11.2,25.1,16.3C63.5,115.5,62.6,116.9,61.6,118.4z M65.2,113c-8.3-5.5-16.6-11.1-24.7-16.9C32,90.1,24,83.2,15.5,77.3c1.1,0.1,2.2,0.1,3.2,0.2c2.3,0.2,4.6,0.3,6.8,0.4c2.6,2.9,6.1,5.3,9.1,7.7c3.7,2.9,7.4,5.7,11.2,8.4c7.2,5.1,14.5,10.2,22.2,14.6C67.1,110.1,66.1,111.6,65.2,113z M68.4,108c-7.1-4.9-14.3-9.7-21.1-15c-3.5-2.7-7-5.5-10.4-8.4c-2.7-2.2-5.4-4.9-8.3-7.1c0.2-0.2,0.3-0.5,0.3-0.9c-0.2-1.3-0.4-2.6-0.6-3.9c2.8,2.6,6.2,4.7,9.2,6.9c3.8,2.8,7.7,5.6,11.5,8.3c7.4,5.2,14.7,10.5,22.4,15.3C70.4,104.9,69.4,106.5,68.4,108z M79.7,82.7c1.6,0.2,3.2,0.4,4.9,0.6c-0.8,1.1-1.5,2.2-2.2,3.3c-1.8-1.4-3.7-2.8-5.6-4.1C77.7,82.6,78.7,82.6,79.7,82.7z M81.6,87.6c-3.3,4.9-6.5,9.9-9.7,14.9C64.8,97,57.5,91.8,50.2,86.4c-3.6-2.7-7.2-5.4-10.9-8.1c-3.6-2.7-7.2-6-11.2-8.1c-0.1-0.1-0.2-0.1-0.3-0.1c-0.4-2.7-0.9-5.5-1.4-8.2c2.9,2.3,5.7,4.8,8.7,7c4.3,3.3,8.7,6.6,13,9.9c4.4,3.3,8.7,6.6,13.1,9.8c3.8,2.8,7.9,7,12.4,8.6c0.2,0.1,0.3-0.1,0.2-0.3c-2.6-3.9-7.8-6.9-11.5-9.8c-4.3-3.4-8.6-6.8-12.9-10.1c-4.3-3.4-8.6-6.7-12.9-10.1c-3.4-2.7-7.1-5.2-10.5-7.7c-0.3-1.5-0.6-3-0.9-4.5c8.1,6.9,16.7,13.3,25.3,19.5c4.6,3.3,9.3,6.6,14,9.7c4.1,2.8,8.8,6.8,13.6,8.2c0.2,0.1,0.4-0.1,0.2-0.3c-3.3-3.8-8.7-6.4-12.8-9.3c-4.7-3.3-9.3-6.6-13.8-10c-9.2-6.8-18-14-26.8-21.1c-0.1-0.1-0.2-0.1-0.3-0.2c-0.4-1.8-0.8-3.5-1.1-5.3c3.5,3.8,8.6,6.8,12.7,9.8c5,3.7,10,7.4,15.1,11.1C61,74.1,71,81.5,81.6,87.6z M75,72.7c0-0.1-0.1-0.1-0.1-0.2c-17.9-14.2-36.5-27.6-55-41c-0.2-0.9-0.5-1.9-0.7-2.8c-0.5-2.1-1-4.3-1.5-6.5C21.4,25.7,26,28.8,30,32c5.2,4.2,10.5,8.3,15.8,12.4c10.2,7.9,20.3,16.3,31.3,23C76.4,69.2,75.7,70.9,75,72.7z M96,23.5c-0.5,1.2-1,2.3-1.5,3.5c-0.3-0.4-0.6-0.9-1-1.3c-0.4-0.3-0.9-0.8-1.4-1.1C93.3,24.2,94.7,23.9,96,23.5z M90.1,25.1c0.3,0.1,0.6,0.2,0.9,0.3c0.6,0.3,1.2,0.6,1.7,1c0.6,0.5,1,1,1.4,1.6c-0.4,1-0.9,2-1.3,3c-0.7-0.9-1.5-1.8-2.3-2.6c-0.9-0.9-2-1.9-3.2-2.6C88.2,25.5,89.1,25.3,90.1,25.1z M85.4,26.2c1.2,1.1,2.8,1.8,4,2.9c1.1,0.9,2,2,2.8,3.1c-0.4,0.8-0.7,1.7-1.1,2.5c-1.2-1.2-2.4-2.4-3.5-3.6c-1.5-1.5-2.9-3.1-4.4-4.5C83.9,26.5,84.6,26.3,85.4,26.2z M75.4,28.4c2-0.5,4.1-0.9,6.1-1.4c1.6,1.9,3.6,3.6,5.4,5.3c1.2,1.2,2.5,2.4,3.7,3.5c-0.3,0.7-0.6,1.3-0.9,2c-3-3.7-6.9-8-11.2-9.7c-0.7-0.3-1,0.6-0.6,1c1.8,1.7,4.1,2.9,6.1,4.5c1.9,1.6,3.6,3.3,5.3,5.1c-0.6,1.3-1.1,2.5-1.7,3.8c-2.4-2.6-4.9-5-7.5-7.3c-2.4-2.1-4.9-4.5-7.6-6.2C73.5,28.9,74.4,28.6,75.4,28.4z M70.2,29.7c2.5,2.2,5.5,3.9,8.2,6c3.1,2.5,6,5.1,8.9,7.9c-0.5,1.1-0.9,2.2-1.4,3.3c-2.4-3-5-5.8-7.9-8.4c-3.3-2.9-7.2-6.3-11.4-7.8c-0.2-0.1-0.3-0.1-0.5,0C67.5,30.3,68.9,30,70.2,29.7z M66.1,30.7c-0.5,0.2-0.7,0.9-0.2,1.4c3.4,2.7,7.3,4.6,10.7,7.3c3.2,2.6,6.1,5.4,8.8,8.5c-0.4,0.9-0.8,1.8-1.2,2.7c-6.9-6.7-14.4-13-22.2-18.8C63.4,31.4,64.7,31,66.1,30.7z M59.5,32.4c8.2,6.3,16.3,12.7,24.3,19.2c-0.7,1.6-1.4,3.2-2.1,4.9c-8.3-8.2-17.1-16-26.5-22.9c0,0,0,0-0.1,0C56.6,33.1,58,32.7,59.5,32.4z M32.8,21.5C39.2,25,45.2,29.1,51.2,33c0.2,0.7,0.8,1.2,1.7,1c0.3-0.1,0.6-0.1,0.9-0.2c-0.2,0.4-0.2,0.9,0.2,1.3c9.2,7.4,18.3,14.7,27.2,22.4c-0.6,1.4-1.2,2.8-1.8,4.2c-9.2-8.8-18.8-17.1-28.6-25.1c-5.1-4.1-10.3-8.2-15.5-12.1c-2.3-1.7-4.6-3.5-6.9-5.3C29.9,20,31.4,20.8,32.8,21.5z M15.1,13.1c0.9,0.4,1.8,0.8,2.7,1.2c4.8,4,10.2,7.4,15.2,11.1c5.4,4.1,10.8,8.2,16.1,12.4C59.2,46,69.1,54.3,79,62.7c-0.5,1.2-1,2.5-1.5,3.7C68,58.2,57.4,51,47.5,43.2c-5.1-4-10.2-8-15.3-12c-5-4-9.9-8.9-15.3-12.1c-0.5-1.9-1.2-3.8-2-5.5C15,13.4,15.1,13.3,15.1,13.1z" class="color-1"/><path fill="#FC60AE" d="M4,19.8c1.3,5.3,2.6,10.7,3.9,16l7.2,29.8c-0.2,0.1-0.4,0.1-0.5,0.3c0,0-0.1,0.1-0.1,0.1c-2.8-2.7-7.5-2.3-10.7,0.1c-5.5,4.2-3.9,11.9-1.8,17.4c6.5,17.4,15.4,34.1,24.2,50.4c3.6,6.8,7,15.6,13.2,20.5c5.2,4,10.9,2.4,14.6-2.6c5.7-7.5,10.3-16.1,15.4-24c5.3-8.4,10.7-16.8,16-25.1c3-4.7,6-9.3,8.9-14c2-3.1,3.9-6.1,2.9-9.8c-1.3-4.9-6.3-7.2-10.6-5.6c4.1-7.2,7.9-14.5,11.5-22c4-8.2,8.3-16.4,11.4-24.9c2-5.5,1.3-11.1-4.1-14.1c-5.7-3.1-12.7-2.2-18.7-0.9c-8.3,1.7-15.6,5.2-23.3,8.6c-4.6,2-9,2.7-13.6,0.1c-4.1-2.3-7.9-5.2-11.9-7.7C30.7,7.9,5.2-10.2,2.6,7.9C2,11.9,3.1,16,4,19.8z M5.6,8.2C6.6,2.5,12,2.4,16.4,4.1c7.3,2.9,14.2,7.3,20.8,11.5c5.8,3.6,12,9.7,19.2,9.4c6.4-0.2,12.1-4.3,17.8-6.7c6.7-2.7,14.5-5.1,21.8-5c2.7,0,5.6,0.4,8.1,1.8c3.9,2.3,4,6.2,2.6,10.1c-3.1,8.5-7.5,16.8-11.4,24.9c-4,8.3-8.3,16.5-12.2,24.8c-0.2,0.4-0.1,0.8,0.2,1.1c0.1,0.7,0.9,1.2,1.7,0.7c2.9-2.1,7-1.8,8.8,1.5c2.1,3.7-1,7.3-3,10.3c-3.8,6-7.7,12.1-11.5,18.1c-7.6,11.9-15.2,23.8-22.7,35.7c-3,4.7-7.4,14.7-14.4,10.1c-5.4-3.5-8.2-10.9-11.2-16.4c-6.4-11.8-12.6-23.7-18.2-35.9c-3.1-6.8-6.9-13.8-8.9-21c-0.9-3.5-1.3-8.3,2-10.7c2.4-1.7,5.8-2,7.6,0.7c0.2,0.3,0.4,0.5,0.7,0.5c0.3,0.4,0.8,0.7,1.4,0.4c0.4-0.2,0.9-0.5,1.2-0.8c0.5,0.1,1-0.1,1.3-0.5c0.6-0.2,1-0.8,0.8-1.6c-4-16.5-8-32.9-11.9-49.4C6,14.8,5.1,11.5,5.6,8.2z" class="color-1"/></g></svg>