<?xml version="1.0" encoding="utf-8"?>
<!-- Generator: Adobe Illustrator 16.0.0, SVG Export Plug-In . SVG Version: 6.00 Build 0)  -->
<!DOCTYPE svg PUBLIC "-//W3C//DTD SVG 1.1//EN" "http://www.w3.org/Graphics/SVG/1.1/DTD/svg11.dtd">
<svg version="1.1" id="图层_1" xmlns="http://www.w3.org/2000/svg" xmlns:xlink="http://www.w3.org/1999/xlink" x="0px" y="0px"
	 width="4580.771px" height="652.6px" viewBox="0 0 4580.771 652.6" enable-background="new 0 0 4580.771 652.6"
	 xml:space="preserve">
<g id="hx">
	<g id="n" transform="translate(0,0) scale(1,1)">
		<g>
			<polygon fill="#383954" points="492.057,137.39 492.057,652.6 963.105,652.6 			"/>
			<polygon fill="#383954" points="3622.572,652.6 4088.715,652.6 4088.715,137.39 			"/>
		</g>
		<g>
			<polygon fill="#DE5947" points="4088.715,515.21 3622.572,652.6 3622.572,456.329 			"/>
			<polygon fill="#DE5947" points="492.057,515.21 963.105,652.6 963.105,456.329 			"/>
		</g>
		<g>
			<rect x="492.057" y="0" fill="#8A93AA" width="3596.659" height="515.21"/>
		</g>
	</g>
	<g id="nw" transform="translate(0,0) scale(1,1)">
		<g>
			<polygon fill="#383954" points="11.193,137.39 246.718,397.448 11.193,652.6 492.057,652.6 492.057,137.39 			"/>
		</g>
	</g>
	<g id="ne" transform="translate(0,0) scale(1,1)">
		<g>
			<polygon fill="#383954" points="4334.054,397.448 4569.578,137.39 4088.715,137.39 4088.715,652.6 4569.578,652.6 			"/>
		</g>
	</g>
</g>
</svg>
