<?xml version="1.0" encoding="utf-8"?>
<!-- Generator: Adobe Illustrator 16.0.0, SVG Export Plug-In . SVG Version: 6.00 Build 0)  -->
<!DOCTYPE svg PUBLIC "-//W3C//DTD SVG 1.1//EN" "http://www.w3.org/Graphics/SVG/1.1/DTD/svg11.dtd">
<svg version="1.1" id="图层_1" xmlns="http://www.w3.org/2000/svg" xmlns:xlink="http://www.w3.org/1999/xlink" x="0px" y="0px"
	 width="4528.602px" height="1412.012px" viewBox="0 0 4528.602 1412.012" enable-background="new 0 0 4528.602 1412.012"
	 xml:space="preserve">
<g id="hx">
	<g id="n" transform=" scale(0.6858074010490783,1)translate(13.469178482430939,0)">
		<g>
			<rect x="2555.476" y="307.746" fill="#AB7253" width="3468.906" height="796.52"/>
		</g>
		<g>
			<rect x="2582.426" y="1001.684" fill="#F2F2DB" width="3504.979" height="18.103"/>
			<rect x="2582.426" y="386.191" fill="#F2F2DB" width="3504.979" height="18.104"/>
		</g>
	</g>
	<g id="nw" transform="translate(0,0) scale(1,1)">
		<g>
			<path fill="#AB7253" d="M1653.564,307.746C1526.845,120.685,1315.646,0,1074.277,0c-241.37,0-458.603,120.685-585.321,307.746
				H12.251l48.274,398.26l-54.308,398.26h476.705c126.719,187.062,337.917,307.746,579.287,307.746
				c241.369,0,452.567-120.685,579.287-307.746h138.787v-796.52H1653.564z"/>
		</g>
		<g>
			<circle fill="#F2F2DB" cx="1074.277" cy="706.006" r="537.047"/>
			<path fill="#F2F2DB" d="M1599.256,1001.684l-30.171,42.239c-114.651,162.925-301.712,265.507-500.843,265.507
				c-199.13,0-386.19-96.548-500.842-265.507l-24.137-42.239H126.901l36.206-295.678l-36.206-301.712h416.362l30.172-42.24
				C688.086,199.13,875.147,96.548,1074.277,96.548s386.191,102.582,494.808,265.506l30.171,42.24h187.062v-18.104H1605.29
				l-24.137-36.205c-114.65-168.958-307.746-271.54-512.91-271.54s-398.26,102.582-512.911,271.54l-24.137,36.205H102.764
				l42.24,313.781l-42.24,313.78h428.431l24.137,36.205c114.65,168.959,307.746,271.541,512.91,271.541
				c205.165,0,398.261-102.582,512.911-271.541l24.137-30.205h181.027v-18.103h-187.062V1001.684L1599.256,1001.684z"/>
		</g>
	</g>
	<g id="ne" transform=" scale(1,1)translate(-17.557622720732354,0)">
		<g>
			<polygon fill="#AB7253" points="4304.607,712.04 4304.607,712.04 4539.942,307.746 4129.614,307.746 4129.614,1104.266 
				4539.942,1104.266 			"/>
		</g>
		<g>
			<polygon fill="#F2F2DB" points="4232.196,748.245 4208.06,706.006 4395.121,386.191 4129.614,386.191 4129.614,404.294 
				4358.915,404.294 4183.923,706.006 4220.128,754.28 4358.915,1001.684 4129.614,1001.684 4129.614,1019.786 4395.121,1019.786 
							"/>
		</g>
	</g>
</g>
</svg>
