<svg version="1.1" xmlns="http://www.w3.org/2000/svg" xmlns:xlink="http://www.w3.org/1999/xlink" x="0px" y="0px" viewBox="0 0 114.8 117.2" enable-background="new 0 0 114.8 117.2" xml:space="preserve" data-svg-colors="#FC60AE"><g id="ry" transform="scale(1,1)"><path fill="#FC60AE" d="M97.2,66.5c0.1,0.2,0.4,0.4,0.5,0.2l-0.4-0.6L97.2,66.5z" class="color-1"/><path fill="#FC60AE" d="M99.1,66.5c-0.1-0.4-0.2-1-0.8-1.3c0.3,0.6,0,0.5,0.4,1.2c-0.1,0.2-0.4,0.1-0.5-0.1c0.1,0.2-0.3,0.1-0.1,0.5c0.5,0.2,0.8,0,0.7-0.6C98.9,66.2,99,66.4,99.1,66.5z" class="color-1"/><path fill="#FC60AE" d="M112.3,59.2l0.1-0.2C112.3,59.1,112.3,59.1,112.3,59.2z" class="color-1"/><path fill="#FC60AE" d="M111,69.5c0-0.1-0.1-0.1-0.1-0.1C111,69.4,111,69.5,111,69.5z" class="color-1"/><path fill="#FC60AE" d="M110.1,71.4c0,0,0-0.1,0.1-0.1C110.1,71.3,110,71.3,110.1,71.4z" class="color-1"/><path fill="#FC60AE" d="M112.3,59.2l-0.2,0.5C112.3,59.4,112.2,59.3,112.3,59.2z" class="color-1"/><path fill="#FC60AE" d="M100,63.6c0,0.1,0,0.2,0,0.2C100,63.7,100,63.7,100,63.6C100,63.6,100,63.6,100,63.6z" class="color-1"/><path fill="#FC60AE" d="M110,60L110,60c-0.1,0.1-0.1,0.2-0.1,0.4L110,60z" class="color-1"/><path fill="#FC60AE" d="M107.5,61.6c0.1,0-0.2-0.5-0.3-0.7c0.1,0.2,0.1,0.3,0.1,0.4C107.3,61.4,107.4,61.5,107.5,61.6z" class="color-1"/><path fill="#FC60AE" d="M102.1,64.7l0,0.1C102.1,64.8,102.1,64.8,102.1,64.7z" class="color-1"/><path fill="#FC60AE" d="M111.2,59.4c-0.1,0.1-0.1,0.2-0.1,0.3C111.1,59.6,111.2,59.5,111.2,59.4z" class="color-1"/><path fill="#FC60AE" d="M58.5,103.7C58.6,103.6,58.6,103.6,58.5,103.7C58.5,103.6,58.5,103.7,58.5,103.7z" class="color-1"/><path fill="#FC60AE" d="M54.9,99.9L54.9,99.9c0.1-0.1,0.1-0.2,0.1-0.3L54.9,99.9z" class="color-1"/><path fill="#FC60AE" d="M108.9,74.9C108.9,74.9,108.9,74.9,108.9,74.9C108.9,74.8,108.9,74.9,108.9,74.9z" class="color-1"/><path fill="#FC60AE" d="M106.5,108.6c0.5-0.4,0.6,0.6,1.2,0.1C107.5,108.7,106.8,108.1,106.5,108.6z" class="color-1"/><path fill="#FC60AE" d="M100.1,63.5c0,0,0.1-0.1,0.1-0.1C100.2,63.5,100.1,63.5,100.1,63.5z" class="color-1"/><path fill="#FC60AE" d="M107.7,108.7L107.7,108.7L107.7,108.7C107.8,108.6,107.7,108.6,107.7,108.7z" class="color-1"/><path fill="#FC60AE" d="M108.3,83.4c0.1,0,0.2,0,0.3-0.1C108.5,83.3,108.5,83.3,108.3,83.4z" class="color-1"/><path fill="#FC60AE" d="M109.8,77.2l-0.1,0.1C109.8,77.3,109.8,77.3,109.8,77.2z" class="color-1"/><path fill="#FC60AE" d="M108.8,86.7c-0.1,0.1-0.1,0.1-0.1,0.2c0,0,0,0,0.1,0C108.7,86.9,108.7,86.8,108.8,86.7z" class="color-1"/><path fill="#FC60AE" d="M108.6,90.2c0,0,0.1,0,0.1-0.1c0,0,0-0.1,0-0.1L108.6,90.2z" class="color-1"/><path fill="#FC60AE" d="M68.3,106.8c0-0.2,0-0.4,0-0.5C68.3,106.7,67.7,106.7,68.3,106.8z" class="color-1"/><path fill="#FC60AE" d="M100.2,63.8c-0.1-0.1-0.1-0.2-0.1-0.3c0,0,0,0.1-0.1,0.1C100.1,63.7,100.2,63.8,100.2,63.8z" class="color-1"/><path fill="#FC60AE" d="M113.2,87.2l-0.1,0.5C113.1,87.6,113.2,87.4,113.2,87.2z" class="color-1"/><path fill="#FC60AE" d="M91.9,113.3l-0.1,0C91.8,113.3,91.9,113.3,91.9,113.3z" class="color-1"/><path fill="#FC60AE" d="M113.1,89.2c-0.2,0.1-0.3,0.2-0.4,0.3c0,0,0.1,0,0.1,0.1L113.1,89.2z" class="color-1"/><path fill="#FC60AE" d="M68.3,106.3L68.3,106.3L68.3,106.3z" class="color-1"/><path fill="#FC60AE" d="M64.5,106.4c0.5,0.2,0.5-0.6,0.7-1c0.7,0,0.1,0.6,0.2,1c0.4-0.1,0.9-0.6,1.2-0.5c0,0.1,0,0.2-0.1,0.3c0.6-0.4,1.1,0.4,1.8-0.2c0,0.1,0,0.1,0,0.2c0-0.4,0.2-0.7,0.2-1c0.2,0.1,0.6-0.3,0.5,0.2c-0.1-0.1-0.2,0.1-0.3,0.2l0.3-0.1c0,0.7-0.4,0.1-0.5,0.6c0.5-0.1,1.2-0.4,1.5-0.1c-0.1,0.7-0.9,0-0.6,0.7l-0.4-0.4c0.1,1.2-0.3-0.2-0.3,1c0.6,0.4,0.9-0.1,1.5,0.3c0.3-0.3,0.1-0.5,0.4-0.9c1.2-0.3,0.3,1.9,1.3,1.3c0.3-0.4,0.7-1.2,1-0.6l-0.4,0.7c0.7,0.3,0.7-0.9,1.3-0.2c-0.2,0.2-0.6,0.1-0.5,0.2c0.3,0.7,0.5-0.3,0.8-0.2l-0.1,0.7c0.8,0.1,1.7-0.1,2.6,0c-0.1,0.2-0.3,0.3-0.2,0.6c1.1,0,2.2,0.7,3.1,1.4l0.5-0.5c0.1,0,0.1,0.3,0,0.4c0.3,0.3,0.1-0.4,0.4-0.5c0.2,0,0.2,0.4,0,0.5c0.8-0.3,2.2-0.5,2.8,0.2l-0.2,0.1c0.5,0.4,0.9-1,1.3-0.4l-0.1,0.1c1.1,0.5,2.6,0.3,3.3,1.4c0.4-0.8,1.1,0.7,1.5-0.5c0.5,0.7,0.3,0.9,1.2,1.5c0.2,0.1,0.6-0.6,0.9-0.7l-0.1,0.6l0.6-0.5l0,0.8l0.3-0.1c-0.1-0.1-0.2-0.3-0.1-0.5c0.5-0.2,1,0.7,1,1l1.2-0.2c-0.1,0.2-0.3,0.3-0.5,0.4c0.8-0.5-0.1,0.7,0.6,0.2c0-0.2,0.1-0.3,0.2-0.5c0.2,0.4,0.8,0.6,1.3,0.5l-0.2,0.4c0.9,0.3,1.9,0.3,2.9,0.5c-0.3-0.3-0.1-1,0.2-1l0,0.7c0.3-0.4-0.2-0.3,0.2-0.7c0.3,0.1,0.1,0.8-0.2,0.9l0.5-0.1c0,0.2-0.1,0.3-0.2,0.5c0.3-0.4,0.6,0.8,1,0.2l0,0.2c0.9,0.2,1.4,0.1,1.9,0.2c0.2-0.5,0.4-0.3,0.7-0.7c0.2,0.2,0.4,0.4,0.6,0.7c0.1,0.1,0.2,0.2,0.4,0.3c0.1,0.1,0.1,0.1,0.2,0.1c0.1,0.1,0.3,0.1,0.4,0.2c0.8,0,0.4-0.4,0.7-0.6c-0.1,0.5,1,0.8,0.4,1c0.7,0.2,1.1,0.2,1.6,0.2c0.4,0,0.9-0.1,1.5-0.4c-0.2-0.2-0.4-0.2-0.4-0.4c0.2-0.1,0.6,0.1,0.7,0.3l0,0.1c0.3-0.3,0.8-0.5,1.3-0.7c0.5-0.2,0.9-0.6,1.3-0.9c0.5-0.5,0.8-1.4,0.3-2.3l0.1,0.1c0,0-0.2-0.5-0.3-0.9c-0.2-0.4-0.3-0.8-0.3-0.8c0-0.3,0.1-0.2,0.3-0.1c0.1,0.1,0.3,0.3,0.4,0c-0.9-1,0.1-1.6-0.5-2.5c1.5-0.6-0.1-2.2,1-3l-0.4,0c-0.3-0.3,0.2-0.2,0.3-0.4c-0.3,0-0.3,0.2-0.5,0c-0.2-1.9,1-3.8,1.6-5.9c0.2-0.8-1.8-0.6-0.8-1.5l0.6,0.3c-0.6-1.7,0.2-3.2-0.4-4.7c0.2,0.1,0.3,0.1,0.3,0.2c0.5-0.3,0.1-1.2-0.3-1.2c0.1-0.2,0.4,0,0.6-0.2c0.3-0.3-0.6-0.8-0.1-0.9c0.1,0,0.2,0.1,0.2,0.1c-0.2-0.2,0.1-0.9-0.5-0.7c0.3-0.5-0.2-1,0.1-1.4c-0.6-0.3,0.3-0.9-0.5-1c0.9,0.1,0.8-0.9,0.4-1.2c0.3,0.1,0.3-0.3,0.7-0.1c0-0.4-0.1-0.7-0.6-0.7c1.1-0.5-0.7-1.5,0.7-1.8c-0.4-1.2-0.6-2.3-0.7-3.4c0.9,0.1,0,1.2,0.9,1.2c-0.3-1-1-1.7-0.6-2.7c0.1-0.2,0.4,0.2,0.5,0.3c-0.3-1,0.3-1.9-0.1-2.8c0.1,0,0.2,0.1,0.2,0.2c0-0.2,0.2-0.4-0.2-0.4l0.1,0.2c-0.6,0.2-1.2-0.8-1.5-0.9c1.1,0.4,0.4-0.8,1.8-0.2c-0.1-0.1-0.2-0.3-0.5-0.3c0.1-0.2,0.3-0.2,0.6,0c-0.2-0.6-0.6-0.5-0.5-1c0.2,0,0.3,0.1,0.5,0.2c-0.4-0.3-0.7-0.7-0.5-1.1c0.1,0,0.3,0,0.3,0.1c0-0.8-0.9-1.5-0.4-2.4c0.8,0.4,0.3-0.3,1.1-0.2l-0.2-0.5l-0.4,0.1c0.1-0.4-0.4-0.9-0.1-1.2l0.3,0.4l0-0.8l-0.3,0.4c-0.3-0.5-0.9-0.1-0.7-0.6c0.1,0.1,0.1-0.4,0.5-0.6l0,0c-0.2-0.2-0.4-0.5-0.2-0.8c0.2,0,0.8,0.2,1,0.2c-0.6-0.3,0-1-0.6-1.4c0.1,0.1,0.5,0.2,0.6,0.2l-0.5-0.3c0.2-0.2,0.3-0.2,0.6-0.1c0.2-0.6-1,0.1-0.5-0.6c0,0.1,0.1,0,0.2,0.2c0.3-0.7-0.1-1.4,0.2-2.1c0.8-0.1,0.1,0.6,0.8,0.4c0-0.5-0.2-1-0.3-1.5c-0.2-0.5-0.3-1.1-0.2-1.7l-0.1,0.2c-0.5,0-0.4-0.2-0.2-0.5c0.2-0.3,0.5-0.8,0.2-1c0.1,0.1,0.6-0.1,0.5-0.1c0.2-1-0.3-1.7-0.8-2.4l0.3-0.1c0.2-0.7,0-1.4,0-2c-0.2,0.2-0.3-0.1-0.5,0.5c0.1-0.3,0.1-0.6,0.2-0.8c0-0.1,0-0.2,0-0.4l0-0.2c0,0,0,0,0-0.1c-0.1-0.2-0.2-0.2-0.4-0.2c-0.5,0.5-1.1,1.2-1.6,1.6c-0.5,0.4-0.8,0.6-1.1,0.3c0.2-0.1,0.4-0.6,0.3-0.5l-1.2,1.1c0.1,0.5,0.1,0.2,0.3,0.5c-0.1,0.4-0.4,0.8-0.6,0.9c0.4-0.6,0-0.8-0.3-1c0.1,0.1,0,0.3,0,0.5c-0.7-0.6,0.1,1-0.6,0.8l0-0.3c-0.2,0.3-0.3,0.7-0.5,0.7c-0.4-0.4,0.1-0.4-0.1-0.8c-0.4,0.3-0.2,1.3-0.7,1c0.1-0.2,0.3-0.3,0.3-0.5c-0.6-0.4-0.6-0.2-0.9-0.1l0,0l-0.7,0.1l0.2,0.1c0.4,1.4-0.7,0.8-0.7,1.9c0-1.1-0.2-0.5-0.5-1c-0.2,0-0.6,0-0.6-0.2c0,0.6-0.7,0.1-0.6,0.9c-0.2-0.1-0.3,0.2-0.5-0.2c-0.2,0.4,0.3,0.2,0.4,0.4c0,0.9-1.5,0.3-1.6,1.5c-0.3,0.8,0,1.4-0.3,2c-0.4-0.1-0.3-0.7-0.3-0.7c-0.5,0-0.7,0.2-0.8,0.6c-0.1-0.2-0.2-0.2-0.4-0.3c-0.2,0.2,0.3,0.7-0.2,0.7c-0.1-0.2-0.3-0.5-0.3-0.8c-0.1,0.4-0.2,0.9-0.3,1.2c-0.3-0.2-0.2-0.5-0.2-0.8c-0.2,0.4-0.6,0.9-0.3,1.4l0.3,0c-0.1,0.1-0.4-0.3-0.3-0.4c0-0.5,0.5-0.2,0.6,0l-0.1,0.3c0.9,0.7,0.6-0.8,1.1-1.1l0.4,0.8l-0.1-0.9c0.2,0.1,0.6,0.4,0.5,0.7c0.5,0.1,0.1-0.4,0.6-0.3c0.1,0,0.1,0.1,0.1,0.1l0.1-0.4c0.1,0.2,0.4,0.4,0.2,0.5c0.8,0,0.4-1.1,1-0.8l0,0.1c0.5-0.8-0.3-0.5-0.3-1.5l1.3,0.9l-0.3-0.5c0.1,0,0.2-0.1,0.4,0.1c0-0.5-0.2-0.2-0.3-0.6c0.7,0.1,0.7-1,1.4-0.3c-0.2-0.4-0.5,0-0.4-0.5c0.8,0.7,0.3-0.5,0.9-0.3c0.2,0.5-0.2,0.5,0.4,0.6c-0.4-0.9,0.7-0.3,0.8-0.6c-0.4-0.6,0.4-0.6,0.7-1.1c0,0.1,0.3,0.1,0.6,0c0.4-0.1,0.6-0.1,0.8-0.1l0,0.1c-0.2-0.7,0.2-0.8,0.5-1.1c0,0.5,0,0.7-0.1,1L110,60c0-0.3,0.1-0.5,0.3-0.7l-0.1,0.7c0.1-0.1,0.2-0.3,0.4-0.6c0.2-0.2,0.4-0.4,0.4-0.3c0.1-0.4,0.2-0.8,0.4-1.3c0.1-0.4,0.3-1,0.7-1.5c-0.1,0.2-0.2,0.5-0.3,0.8c-0.1,0.3-0.2,0.5-0.3,0.6c0.1-0.1,0.3-0.4,0.3-0.3l-0.4,0.8c0.1,0.2,0.3-0.6,0.5-0.7c-0.2,0.6-0.1,0.4-0.3,0.9c-0.1,0.1,0-0.2-0.2,0.1c0.1,0,0.1,0.2,0,0.6c0,0,0,0.1,0,0.1c0.2-0.4,0.4-0.9,0.5-1c0.3-0.2-0.3,0.7-0.4,1c0.3-0.5,0,0.2,0.6-0.8c0,0.1-0.2,0.6-0.4,0.8c0.3-0.3,0.2,0.5,0.7-0.4l0-0.1c0,0,0,0,0,0l0,0l0,0c0.3-0.1,0.3,0.4,0.2,0.9c-0.1,0.5-0.3,0.9-0.1,1.1l-0.2,0.1c0.2,0.2,0.1,0.7,0.5,0.9c0,0.1-0.4,0.3-0.6,0.2c0.1,0.2,0.3,0.4,0,0.9c-0.3-0.4-0.3,0.1-0.2-0.4c-0.2,0.5-0.5,0.5,0,1.1c-0.5-0.2-0.7,0.3-0.5,0.5l0.4-0.3c0.1,0.3,0,0.5-0.1,0.7l-0.6-0.2c-0.9,0.8,1.2,1.9-0.3,2.4c0.4,0.3,0.4-0.5,0.9-0.2c-0.2,0.4-1.2,0.8-1.2,0.9c-0.5,0.6,0.9,0.7,0.5,1.3c0.2-0.1,0.9,0,1,0.5c-0.1,0.4-1.1,0.4-1.2,0.1c0-0.1,0.1-0.2,0.2-0.1c-0.1-0.2-0.1-0.4-0.4-0.2l0.2,0.1c-0.3,0.2-0.3,0.8-0.7,0.6c0.2,0.4,0.4,0.2,0.5,0c-0.4,0.5-0.1,0.9-0.4,1.5c0.1-0.1,0.4-0.1,0.4,0c-0.4,0.8,0.4,0.4,0.4,1.1c-0.4,0.3-0.8-0.2-0.6,0.4c-0.3,0.3-0.6,0-0.8-0.2c0.4,0.6-0.4,1-0.5,1.3l-0.2-0.3c0.1,0.2,0.1,0.3,0.1,0.5l0.5-0.1c-0.1,0.2-0.1,0.3-0.3,0.3c0.3,0.2,0.8,0,1.2,0.4c-0.3,0.2,0.2,0.7-0.5,0.7c0.3-0.7-0.6,0-0.7-0.6c0.1,0.1,0,0.3-0.1,0.4c-0.1,0-0.1,0-0.2-0.1c-0.6,0.6,0.7,0.4,0.6,1.1c-0.3-0.1-0.7,0.1-0.6,0.2c0-0.3,0.6-0.1,0.8,0.2c-0.3,0.4,0.2,0.5,0.1,0.7L110,77c0.3,0.1,0.3,0.3,0.3,0.7c-0.3,0-0.2-0.3-0.3-0.2c0.6,0.4-0.7,0.7-0.4,1.2c-0.3,0.2-0.7,0-0.8,0.1c0.4,0.6-0.5,0.5-0.2,1.1c0.5-0.1,0.4-0.2,0.8,0.3l-0.2-1l0.6,0.7c0-0.3-0.2-0.6-0.1-0.8c0.4,0.3,0.2,0.3,0.6,0.2c-0.8,0.3,0.3,0.8-0.2,1.2l-1.2-0.1c-0.6,0.6,0.5,1.3,0.1,2.1l0.2-0.3c0.5,0.2,0,0.5,0.2,0.8c-0.4-0.1-0.6,0.1-0.8,0.2c0.3,0-0.1,0.6,0.7,0.8l-0.6,0.3c-0.3,0.7,1,0.9,0.8,1.6c-0.4-0.3-0.7,0-1-0.5c0,0.2-0.1,0.4,0.1,0.5c-0.3,0.1,0.5,0.7,0.1,0.9c0.2,0.1,0.6,0.2,0.5,0.4c-0.1,0-0.2,0-0.2,0c0.2,0,0.2,0.4,0.7,0.2c-1.3,0.6,0,2-1.1,2.6c0.1,0.5,0.2,1.1,0.2,1.6c-0.1,0-0.2,0-0.2-0.1c-0.4,0.6,1.1,0.4,0.7,1.1c-0.6,0.3-0.3-0.4-0.6-0.2c-1.3,0.1,0.2,0.9-0.6,1.3l-0.1-0.1c-0.5,0.3,0.5,0.9,0.4,1.5c0,0-0.1,0-0.2,0c0.6,0.4,0.8,1.2,1,1.8c-0.5-0.2-0.3-0.3-0.8-0.2c0.1,0.3,0.8,0,0.9,0.5c-0.3,0.1-0.6,0.5-1.1,0.5l0-0.5c-0.7,0.2,0,0.6-0.2,0.8l-0.3-0.1c0,0.7,0.8,0.8,0.7,1.6l0.2-0.1c0.7,0.5-0.5,0.3,0,0.8l-0.8,0c0.2,0.3,0.6,1.1,0.7,1.6c-0.5-0.4-0.8-1-1.1-1.4c0,0.3-0.1,1,0.3,1.2c-0.1-0.1-0.2-0.3-0.1-0.4c0.6,0.4,0.8,0.9,0.7,1.5c-1.5-0.3-0.6,1.4-1.8,1.7c0.5,1.1-0.4,2.1-0.4,3.3c1.2-0.4,0,0.4,1.3,0.3c0.1,0.3,0.1,0.4,0,0.4l-0.7,0.8c-0.4,0.2-0.3-0.3-0.5-0.2c-0.1,0.6-0.5,0.3-0.8,0.7c0.4-0.1,0.6,0.2,0.5,0.6l0.6-0.5c0.3,0.4,0.1,0.6-0.2,0.8c-0.1,0.1-0.3,0.2-0.3,0.3c0,0,0,0.2,0,0.2c0,0,0.1,0,0.1,0.1c0,0-0.4-0.1-0.4-0.1c0.1,0,0.1,0.1,0.2,0.2c0.1,0.1,0.3,0.2,0.8,0.6c-0.1-0.1-0.5-0.3-0.6-0.4c0,0,0,0,0,0.1c0.1,0.1,0.3,0.5,0.2,0.8c0,0.2-0.2,0.3-0.4,0l-0.1-0.3c0,0.1,0.1,0.6-0.1,0.3c0-0.1-0.1-0.3-0.1-0.4c0,0.1,0,0.6-0.2,0.3c0,0,0-0.1,0-0.2c0-0.1,0-0.2,0-0.2c-0.1-0.2-0.2,0-0.4,0.2c0,0.1-0.1,0.1-0.2,0.2l-0.1,0.1l-0.2,0c-0.2,0.1-0.4,0.1-0.7,0.1c0.3-0.8-0.3-1.4-0.7-1.7l0.1-0.1c-1.4-0.6-2.4,0.1-3.6,0.2c-0.5-1.1-2.2-0.9-3-1.6c0.1,0.2-0.2,0.7-0.4,0.7c-0.2-0.2-0.8,0.4-0.6-0.3l0.1,0c0-0.8-0.5-0.7-0.9-0.8l-0.3,1c-0.6-1.7-2.9-0.1-3.1-1.6c-0.3,0.2-0.6,0.1-0.9,0.3l0.2-0.5c-0.7-0.3-1-0.5-1.9-0.5l0.3-0.3c-0.5-0.2-1,1.4-1.5,1.4l0.1-0.9c-0.8-0.2-1.5-1.1-2.5-0.6c0-0.1,0.1-0.3,0.3-0.3c-0.4-0.1-1.4-0.9-1.5,0.2c0.2-0.7-0.9-0.3-1.4-0.1l0.2-0.5c-0.6,0.6-0.6,0.8-1.2,0.8c-0.1-0.1,0-0.5,0.1-0.3c-0.3-0.4-0.5,0.4-0.9,0l0.3-0.3c-0.4-0.2-0.4,0-0.8,0.4c-0.3,0.1-0.8-0.4-0.7-0.9c-0.1,0.3-0.5,0.6-0.7,0.4c0-0.2,0.1-0.3,0.2-0.3c-0.6-0.6-1.2,0.3-1.6-0.4c0-0.2,0-0.3,0-0.3c0.6,0.2,1,0.3,1,0.4c0.1-0.5-0.3-0.7,0.3-1.3c-0.5,0.3-1.3,0.9-1.7,0.5c0-0.1,0-0.1,0-0.2l0.1,0c-0.1-0.1-0.2-0.1-0.3,0c-0.1-0.1-0.2-0.2-0.3-0.3c0.1-0.4-0.5-0.4-0.7-0.5c-0.1,0.5-0.4,0.4-0.3,0.9c0,0,0.1-0.1,0.2,0c0,0,0.1,0,0.1,0l0,0c0.2,0,0.4,0.1,0.6,0.1c-0.3,0.2-0.5,0.4-0.7,0c-0.2,0.3-0.5,0.6-0.6,0.8c-0.1-0.8-0.6-1.4-0.5-1.9c-0.8,0.1-1.7-0.3-2.5,0.5c-0.2,0.1-0.1-0.4-0.2-0.5c0.1-0.1,0.3,0,0.4-0.1c-0.5,0.1-1.2-0.3-1.5,0.4c-0.4-0.5,0.5-0.6-0.2-0.7l0.2-0.2c-1-1.6-2.8,1.1-3.8-0.9c0.1,0.1,0.1,0.2,0.1,0.3c-1.5-1.2-3.6-0.6-4.9-2.2c-0.4-0.4-0.6,0-1,0.3l0.1-0.6l-0.7,0.5c-0.9,0.2-0.8-1.8-2-1.2l0,0.4c-0.3-0.2-1.1-0.1-0.9-0.5c-0.1,0.1-0.2,0.4-0.3,0.1l0.1-0.3c0,0-0.2,0.1-0.5,0.2c-0.2,0.1-0.5,0.2-0.5,0.2c-0.6-0.4,0.4-1.2-0.6-1.5c-0.4,0-1.2,0.7-1.1,1c0.1,0,0.3,0.3,0.3,0.6L55,99.9c-0.2,0.9-0.5,1.8,0.1,2.6c0,0,0.1-0.1,0.3-0.2c0.1-0.1,0.3-0.2,0.3-0.2l0.1,0.5l-0.4,0c0.1,0.5,0.4,0.1,0.6-0.1c0,0.2,0,0.4,0.1,0.5l0.7-0.8c0,0.4-0.4,0.7-0.1,0.9c0.3-0.3,0-0.8,0.4-1c0.1,0.5,0,0.8,0.3,0.5c0,0.2-0.1,0.4-0.3,0.4c0.3-0.2,0.7,0.1,0.9-0.4c0.1,0.6,0.9,0.1,0.6,1c0.1-0.2,0.7-0.5,0.9-0.5c-0.8,0.9,0.8,0.4,0.3,1.4c0.6-0.8,1.3,0,2-0.3c-0.1,0.1-0.2,0.2-0.2,0.1c0.3,0.2,0.3,0.5,0.4,0.7c0.3-0.7,0.9-0.7,1.3-1c0.1,0.9-0.6,0.8-0.7,1.5c0.2-0.6,0.9-0.3,1-0.9c0.1,0.6,0.2,0.3,0.1,1c0.4-0.9,0.3-0.1,0.8-0.5c0.3,0.6-0.2,0.9,0.4,0.8C65.1,106.3,64.5,106.4,64.5,106.4z M76.5,108.5C76.5,108.5,76.5,108.5,76.5,108.5c-0.1,0-0.2,0-0.3,0C76.3,108.5,76.4,108.5,76.5,108.5z M77.5,108.8c-0.1-0.1-0.3-0.1-0.4-0.1c0-0.2,0.1-0.4,0.2-0.3C77.2,108.4,77.4,108.6,77.5,108.8z M76.6,104.5c0.2,0,0.2,0.1,0.2,0.2c-0.1,0-0.2,0-0.3,0c0,0,0,0,0,0.1C76.5,104.6,76.5,104.5,76.6,104.5z" class="color-1"/><path fill="#FC60AE" d="M76.1,105.1C76.1,105.1,76.1,105.1,76.1,105.1c-0.1,0.1,0,0.1,0,0.2C76.1,105.2,76.2,105.2,76.1,105.1L76.1,105.1z" class="color-1"/><path fill="#FC60AE" d="M112.3,58.9L112.3,58.9c0,0,0,0,0.1-0.1C112.4,58.9,112.4,58.9,112.3,58.9z" class="color-1"/><polygon fill="#FC60AE" points="90.8,113.3 90.8,113.1 90.7,113.2 " class="color-1"/><path fill="#FC60AE" d="M109.4,57.4c0,0-0.1-0.1-0.1-0.1C109.3,57.3,109.3,57.3,109.4,57.4z" class="color-1"/><path fill="#FC60AE" d="M106.8,58.7l-0.4,0C106.6,58.8,106.7,58.7,106.8,58.7z" class="color-1"/><path fill="#FC60AE" d="M105.1,59.6c0,0.1,0.1,0.2,0.1,0.2l0,0L105.1,59.6z" class="color-1"/><path fill="#FC60AE" d="M113.6,77.5C113.6,77.5,113.6,77.5,113.6,77.5C113.7,77.7,113.6,77.6,113.6,77.5z" class="color-1"/><path fill="#FC60AE" d="M113.3,68.7c0.1,0.1,0.2,0.2,0.2,0.3C113.6,68.9,113.6,68.8,113.3,68.7z" class="color-1"/><path fill="#FC60AE" d="M113.2,87.2C113.2,87.2,113.2,87.2,113.2,87.2L113.2,87.2L113.2,87.2z" class="color-1"/><path fill="#FC60AE" d="M113.5,69.4c0.1-0.1,0.1-0.3,0.1-0.4C113.5,69.2,113.4,69.3,113.5,69.4z" class="color-1"/><path fill="#FC60AE" d="M98.7,64.6L98.7,64.6c-0.1,0.1,0,0.1,0,0.1L98.7,64.6z" class="color-1"/><path fill="#FC60AE" d="M98.6,64.7l0,0.1C98.7,64.8,98.7,64.8,98.6,64.7z" class="color-1"/><path fill="#FC60AE" d="M98.5,65.1l0.1-0.2C98.6,64.9,98.5,64.9,98.5,65.1z" class="color-1"/><path fill="#FC60AE" d="M100.8,63.2l-0.1-0.2C100.7,63.1,100.7,63.1,100.8,63.2z" class="color-1"/><path fill="#FC60AE" d="M101.3,62.7c-0.2,0.1-0.6-0.1-0.7,0.2l0.1,0.1C100.5,62.7,101.4,63.1,101.3,62.7z" class="color-1"/><path fill="#FC60AE" d="M105.3,62.6l-0.6,0.3c0.2,0.1,0.5,0.2,0.3,0.4C106.1,63.3,104.6,63.1,105.3,62.6z" class="color-1"/><path fill="#FC60AE" d="M106.9,61.7c-0.2,0.3,0.2,0.3,0.2,0.4C107.2,61.8,107.2,61.7,106.9,61.7z" class="color-1"/><path fill="#FC60AE" d="M111.9,62.2l-0.5,0C111.5,62.3,111.6,62.1,111.9,62.2z" class="color-1"/><polygon fill="#FC60AE" points="114.3,65 114.7,64.8 114.2,64.6 " class="color-1"/><polygon fill="#FC60AE" points="110.5,66.1 110.5,66 110.6,66.4 " class="color-1"/><path fill="#FC60AE" d="M108.1,89.6l0.6-0.1C108.7,89.3,107.9,89.3,108.1,89.6z" class="color-1"/><path fill="#FC60AE" d="M108.3,99.5c-0.3,0.1-0.6,0.3-0.3,0.5C108.1,99.8,108.3,99.6,108.3,99.5z" class="color-1"/><polygon fill="#FC60AE" points="94.7,109 94.9,108.9 94.5,109 " class="color-1"/><path fill="#FC60AE" d="M87.1,71.1c-0.2-0.1-0.6-0.1-0.5,0.2c0,0,0.2,0,0.3,0.1c0.2,0,0.3,0.1,0.3,0.1L87.1,71.1z" class="color-1"/><path fill="#FC60AE" d="M85,70.9c-0.5-0.2-1.2-0.2-1.6,0.4c0.7-0.1,0.6,0.1,1.4,0.1c0.2,0.2,0.1,0.6-0.1,0.7c0.1,0,0.1,0.2,0.2,0.3l2.7,3.5l-1-3.9c0-0.1-0.1-0.2-0.2-0.2c-0.1,0.1-0.2,0.2-0.2,0.3l-1.3,2.2l0.5-2c0.1-0.5-0.2-0.9-0.7-1.1C84.7,70.9,84.9,70.9,85,70.9z" class="color-1"/><path fill="#FC60AE" d="M66,42.3l0.1,0.2C66.1,42.5,66,42.4,66,42.3z" class="color-1"/><path fill="#FC60AE" d="M54.4,24.5c0.1,0.1,0.2,0.2,0.3,0.1C54.5,24.5,54.4,24.4,54.4,24.5z" class="color-1"/><path fill="#FC60AE" d="M53.1,21.1c0,0.1,0,0.1,0.1,0.2C53.2,21.2,53.2,21.1,53.1,21.1z" class="color-1"/><path fill="#FC60AE" d="M66,42.3l-0.1-0.6C65.7,41.8,65.9,42.1,66,42.3z" class="color-1"/><path fill="#FC60AE" d="M80.8,67.9c0.1,0.1,0.2,0.2,0.3,0.2c-0.1-0.1-0.2-0.2-0.2-0.3C80.9,67.9,80.9,67.9,80.8,67.9z" class="color-1"/><path fill="#FC60AE" d="M71.6,49.9l0.1,0.1c0.1,0,0.2,0,0.3,0L71.6,49.9z" class="color-1"/><path fill="#FC60AE" d="M76,55.6c-0.1-0.2-0.6,0.1-0.8,0.2c0.2-0.1,0.4,0,0.5,0.1C75.8,55.8,75.9,55.7,76,55.6z" class="color-1"/><path fill="#FC60AE" d="M82.1,65.3l0.2,0.2C82.2,65.4,82.1,65.4,82.1,65.3z" class="color-1"/><path fill="#FC60AE" d="M68.9,45.5c0.1-0.1,0.1-0.1,0.1-0.2C69,45.4,68.9,45.5,68.9,45.5z" class="color-1"/><path fill="#FC60AE" d="M63.1,96C63.1,96,63.1,96,63.1,96C63,96,63.1,96,63.1,96z" class="color-1"/><path fill="#FC60AE" d="M54.9,98.8l0.1,0c0-0.1,0-0.2-0.1-0.3L54.9,98.8z" class="color-1"/><path fill="#FC60AE" d="M50.6,15C50.6,15,50.6,15.1,50.6,15C50.7,15.2,50.7,15.1,50.6,15z" class="color-1"/><path fill="#FC60AE" d="M3.8,29c0.6-0.1,0.3,0.3,0.1,0.6c-0.2,0.3-0.3,0.6,0.5,0.4c-0.1,0,0-0.4,0-0.7c0-0.1,0-0.3-0.1-0.3c0,0-0.1-0.1-0.2-0.1C4.1,28.9,4,28.9,3.8,29z" class="color-1"/><path fill="#FC60AE" d="M80.8,67.6c-0.1-0.1-0.1-0.2-0.2-0.3C80.7,67.5,80.7,67.6,80.8,67.6z" class="color-1"/><path fill="#FC60AE" d="M4.4,30L4.4,30l0.2,0C4.5,30,4.5,30,4.4,30z" class="color-1"/><path fill="#FC60AE" d="M41.5,0c0,0.1,0.1,0.3,0.1,0.5C41.7,0.4,41.6,0.3,41.5,0z" class="color-1"/><path fill="#FC60AE" d="M47.8,12.1l-0.1-0.3C47.8,11.9,47.8,12,47.8,12.1z" class="color-1"/><path fill="#FC60AE" d="M35.2,4.3c-0.2,0-0.3,0-0.4,0.2c0,0,0.1,0,0.1,0C35,4.4,35,4.3,35.2,4.3z" class="color-1"/><path fill="#FC60AE" d="M30.3,8.6c0.1,0,0.1,0,0.2,0c0,0,0.1-0.1,0.1-0.2L30.3,8.6z" class="color-1"/><path fill="#FC60AE" d="M69.8,80.5c0,0.2,0,0.4,0,0.6C69.9,80.7,70.8,81.1,69.8,80.5z" class="color-1"/><path fill="#FC60AE" d="M81.1,67.7c-0.1,0-0.2,0-0.3-0.1c0,0.1,0.1,0.1,0.1,0.2C81,67.8,81.1,67.8,81.1,67.7z" class="color-1"/><path fill="#FC60AE" d="M37.3,8.2c0,0-0.2,0.1-0.3,0.2c-0.2,0.1-0.3,0.2-0.3,0.2C36.9,8.4,37.1,8.3,37.3,8.2z" class="color-1"/><path fill="#FC60AE" d="M33.3,55.6l0.2,0.1C33.5,55.6,33.4,55.6,33.3,55.6z" class="color-1"/><path fill="#FC60AE" d="M34.9,10.3c-0.3,0-0.5,0-0.7,0.1c0,0.1,0,0.1,0,0.2L34.9,10.3z" class="color-1"/><path fill="#FC60AE" d="M69.8,81.1L69.8,81.1L69.8,81.1z" class="color-1"/><path fill="#FC60AE" d="M74.8,88.2c0.5-0.6,0.3-0.8,0-0.9c-0.2-0.1-0.6-0.1-0.8-0.2c0.2-0.6,0.4-0.8,0.6-0.8c0.2,0,0.5,0.1,0.7-0.2c-0.2-1.1-1.3-1.6-1.7-2.2c0.1-0.1,0-0.2,0.3-0.1c-0.7-0.4-1.2-0.9-2-1.5c-0.4-0.3-0.8-0.5-1.2-0.7c-0.2-0.1-0.4-0.2-0.6-0.2c-0.1,0-0.3,0-0.4,0c0-0.1,0-0.2,0-0.2c-0.1,0.4-0.3,0.7-0.4,0.9c-0.4-0.2-0.9,0-0.8-0.5c0.2,0.1,0.3,0,0.5-0.1l-0.5,0c0-0.8,0.7,0.1,0.9-0.3c-0.9-0.3-2-0.3-2.5-0.8c0.2-0.7,1.4,0.6,1-0.4l0.7,0.7c-0.1-1.3,0.5,0.4,0.5-1c-1-0.8-1.5-0.5-2.5-1.3c-0.5,0.2-0.2,0.5-0.7,0.7c-2-0.4-0.4-2.2-2.1-2.2c-0.5,0.2-1.1,0.9-1.7,0l0.7-0.5c-1.1-0.7-1.2,0.6-2.1-0.6c0.4-0.1,1,0.3,0.9,0.1c-0.4-1-0.8,0-1.3-0.3l0.2-0.7c-1.2-0.6-2.8-1-4.1-1.7c0.2-0.1,0.5-0.2,0.3-0.5c-1.8-0.7-3.4-2.3-4.7-3.6l-0.9,0.1c-0.1-0.1-0.1-0.4,0.1-0.4c-0.5-0.6-0.2,0.3-0.7,0.3c-0.4-0.2-0.3-0.6,0.1-0.6c-0.3-0.1-0.7-0.2-1.1-0.3c-0.3-0.1-0.7-0.3-1.1-0.5c-0.7-0.4-1.4-1.1-1.8-1.8l0.3,0c-0.4-0.5-0.9-0.4-1.3-0.4c-0.4,0-0.7,0.1-1-0.4l0.2,0c-1.6-1.4-3.7-2.6-4.6-4.4c-0.8,0.4-1.6-1.7-2.4-0.9c-0.7-1.3-0.3-1.2-1.6-2.6c-0.4-0.3-1,0.2-1.6-0.1l0.3-0.5l-1,0.1l0.1-0.9l-0.6-0.2c0.2,0.2,0.2,0.5,0.1,0.6c-0.9-0.3-1.5-1.6-1.3-1.9l-2-0.8c0.2-0.2,0.5,0,0.8,0c-1.2-0.1,0.2-0.6-0.9-0.7c0,0.2-0.3,0.2-0.4,0.3c-0.2-0.6-1-1.3-1.8-1.7l0.4-0.2c-1.1-1-2.5-1.9-3.8-3.1c0.3,0.6-0.3,1-0.7,0.7l0.3-0.6c-0.5,0.1,0.2,0.5-0.6,0.5c-0.4-0.5,0.2-0.8,0.6-0.8l-0.7-0.4c0.1-0.2,0.3-0.1,0.5-0.3c-0.5,0.1-0.6-1.4-1.4-1.2l0.1-0.2c-0.7-0.6-1.2-1-1.8-1.3c-0.5-0.3-1.1-0.7-1.6-1.1c-0.4,0.4-0.7,0-1.3,0.1c-0.7-0.8-1.3-1.9-2.2-2.6c-0.9-0.4-0.5,0.2-1,0.2c0.3-0.4-0.7-1.2,0-1.1c-1.2-0.9-1.6-1.2-3.4-2.1c0,0.3,0.2,0.5,0,0.6C11,38.6,10.8,38,11,37.9l0.1,0c-1.1-0.4-2-1.4-2.8-2.3c-0.4-0.5-0.7-0.9-1-1.2c-0.2-0.2-0.3-0.3-0.5-0.4C6.7,34,6.7,34,6.6,34c-0.1,0-0.1,0-0.2,0l0.1,0c0,0-0.2,0-0.4,0c-0.2,0-0.5-0.2-0.5-0.2c0-0.2,0.1-0.1,0.3-0.1c0.2,0,0.4,0,0.5-0.1c-0.3,0-0.5-0.2-0.6-0.3c-0.1-0.1,0.1-0.2,0.2-0.3c0.3-0.1,0.5-0.1,0.5-0.4c0.1,0.1,0.2,0.1,0.2,0.1c0.1,0,0.2,0,0.3,0c0.3-0.1,0.5-0.1,0.7-0.3c0.1-0.1,0.2-0.1,0.3-0.2l0.2-0.2c0.1-0.1,0.2-0.2,0.3-0.3c0.2-0.2,0.4-0.4,0.6-0.6c0.4-0.4,0.8-0.8,1.2-1.2c0.4-0.3,0.8-0.5,1.2-0.6l-0.3-0.2c0.1-0.5,0.5-0.1,0.8-0.3c-0.2-0.2-0.5,0-0.5-0.3c1.2-1.2,2.8-2.2,4.5-3.2c1.6-0.9,3.4-2,4.9-2.9c1.1-0.7-0.5-1.9,1.3-2.3l0,0.8c1.7-2.3,4.5-3.4,6.1-5.7c0,0.2,0.1,0.4-0.1,0.6c0.2,0,0.4-0.1,0.6-0.2c0.2-0.1,0.3-0.3,0.4-0.5c0.3-0.4,0.4-0.7,0.3-0.9c0.3-0.2,0.3,0.2,0.6,0.2c0.6-0.1,0.7-1.4,1.3-1.2c0.1,0,0,0.2-0.1,0.3c0.1-0.4,1.4-1.1,0.8-1.3c1-0.5,1.4-1.6,2.1-2c-0.1-0.8,1.3-0.9,0.8-1.7c0.3,0.4,0.7,0.2,1,0c0.3-0.3,0.6-0.6,0.7-1c0,0.3,0.5,0,0.6,0.4c0.5-0.3,1.1-0.9,0.7-1.2c0.2,0,0.4,0,0.6-0.1c0.2-0.1,0.4-0.2,0.6-0.3c0.1-0.1,0.2-0.1,0.2-0.2c0,0,0,0,0-0.1l0-0.2c0-0.3,0.2-0.6,0.4,0.2c0-0.1,0.1-0.2,0.1-0.3c0,0,0.1-0.1,0.1-0.1c0,0,0.1,0,0.1,0c0.2,0,0.4,0,0.7,0.2c0.1,0,0.1,0.1,0.2,0.2c0,0,0.1,0.1,0.1,0.1l0.2,0.2c0.2,0.3,0.4,0.6,0.6,0.8c-0.4,0.2-0.7-0.3-0.9-0.6C41.1,6.6,41,6.5,41,6.5c0,0-0.1-0.1-0.1-0.1c-0.1,0-0.2,0-0.4,0.2c0.1,0,0.1,0,0.2,0.1C40.8,6.8,41,6.9,41.1,7c0.3,0.2,0.5,0.5,0.8,0.7c0.5,0.5,0.9,1.1,1.2,1.9c0.1,0.5-0.5-0.1-0.7-0.2c0.5,0.7,0.9,1.6,1.2,2.4c0.3,0.8,0.8,1.6,1.3,2.2c-0.1,0-0.2-0.1-0.4-0.2c0.2,0.3,0.2,0.7,0.6,0.5l-0.2-0.2c0.3-0.7,1.7,0.6,2,0.5c-1.3,0,0.5,1.6-1.3,1.5c0.2,0.2,0.5,0.3,0.7,0.1c0.1,0.3,0,0.5-0.4,0.3c0.7,0.9,0.9,0.4,1.4,1.3c-0.2,0.1-0.3-0.1-0.6-0.1c0.6,0.3,1.2,0.6,1.4,1.5c-0.1,0-0.2,0.2-0.3-0.1c0.8,1.3,2.1,1.8,2.7,3.4c-1,0,0.1,0.6-0.5,1.1l0.7,0.7l0.1-0.5c0.4,0.7,1.3,1,1.4,1.7l-0.6-0.3c0,0,0.2,0.3,0.5,0.6c0.2,0.2,0.4,0.5,0.4,0.5s0-0.2-0.1-0.4c0-0.2-0.1-0.4-0.1-0.4C53,26,53,25,53.4,26c-0.2-0.1,0.4,0.7,0.2,1.2l0,0c0.4,0.2,0.8,0.5,0.9,1.1c-0.1,0.2-0.8,0.3-0.9,0.4c0.7,0,1.1,1.6,2,1.7c-0.2,0-0.6,0.2-0.6,0.3l0.6,0c0.1,0.4,0.1,0.5-0.2,0.6c0.6,1,0.5-0.9,1,0.4c-0.1-0.1-0.1,0-0.3-0.1c0.7,1.2,1.9,1.7,2.4,2.8c-0.4,0.7-0.8-0.7-1,0c0.6,0.6,1.3,1.1,1.8,1.7c0.6,0.6,1.2,1.3,1.6,2.1l-0.1-0.3c1-0.4,0.2,1.3,1.1,1.8c-0.2-0.1-0.6,0.1-0.5,0.1c0.5,1,1.5,1.8,2.8,3l-0.3,0c0.2,0.7,0.9,1.5,1.2,2.2c0.3,0,0.5,0.4,0.7,0c-0.1,2.7,3,3.1,3,5.5c-0.1-0.2-0.5-0.3-0.4-0.2l1.2,1.3c0.3-0.4,0.1-0.3,0.2-0.8c0.3,0,0.8,0.3,1,0.6C70,50.9,70,51.7,70,52.2c0.1-0.1,0.3-0.1,0.4-0.2c-0.2,1.2,0.8-0.4,1.1,0.9l-0.2,0.1c0.4,0.3,0.9,0.4,1.1,0.9c-0.3,0.5-0.5-0.2-0.9,0c0.5,0.5,1.6,0.4,1.6,1.3c-0.3-0.1-0.6-0.5-0.9-0.6c-0.1,0.9,0.1,0.9,0.4,1.3l0,0c0,0,0.2,0.3,0.3,0.5c0.1,0.2,0.2,0.5,0.2,0.5l0-0.3c1.6-0.2,1.2,1.2,2.6,1.6c-1.3-0.5-0.5,0.1-1.1,0.4c0,0.3,0.1,0.8-0.1,0.8c0.7,0.2,0.1,1,1.2,1.3c-0.1,0.1,0.3,0.5-0.2,0.7c0.5,0.5,0.2-0.3,0.4-0.4c0.6,0.3,0.8,0.9,1.1,1.7c0.3,0.7,0.9,1.6,1.8,1.7c0.6,0.3,1,0.3,1.5,0.5c0.4,0.1,0.8,0.3,1.3,0.7c-0.1,0.5-0.8,0-0.8,0c0.1,0.7,0.3,1.1,0.8,1.6c-0.2,0-0.3,0.1-0.4,0.4c0.3,0.5,0.8,0,1,0.7c-0.3,0-0.6,0.1-1,0c0.5,0.5,1.2,0.8,1.8,1.2c-0.2,0.3-0.6,0-1,0c0.6,0.5,1.4,1.2,2,1.1l-0.1-0.5c0.2,0.2-0.3,0.4-0.5,0.3c-0.7-0.2-0.4-0.8-0.3-0.9l0.4,0.3c0.6-1.1-1.3-1.3-1.7-2.2c0,0,0.2,0,0.5,0c0.2,0,0.5-0.1,0.5-0.1S82.3,67.1,82,67c-0.3-0.1-0.5-0.3-0.5-0.3c0.1-0.3,0.5-0.6,0.8-0.3c0.1-0.8-0.5-0.4-0.4-1.1c0-0.1,0.1-0.1,0.1,0c0,0-0.1-0.1-0.3-0.2c-0.1-0.1-0.3-0.2-0.3-0.2c0.2,0,0.5-0.4,0.6,0c-0.1-0.7-0.6-1.1-0.9-1.3c-0.4-0.2-0.7-0.3-0.6-0.7l0.1,0c-1.4-0.9-0.5,0.4-1.9,0.1c0,0,0.1-0.4,0.3-0.8c0.1-0.4,0.3-0.8,0.3-0.8l-0.6,0.3c-0.1-0.1-0.2-0.4,0-0.5c-0.7-0.2-0.1,0.2-0.7,0.2c0-0.9-1.4-1.6-0.7-2.3c-0.5,0,0.1,0.8-0.6,0.3c0.8-0.8-0.7-0.7-0.6-1.6c0.6-0.1,0.7,0.6,0.7-0.2c-1,0.1-0.6-1.3-1.1-1.7c-0.3,0.2-0.6,0-0.9-0.4c-0.3-0.4-0.7-0.9-1.1-1.1c0.2-0.1-0.9-1.7-1.2-2.6l0.1-0.1c-0.7,0.3-1.1-0.6-1.7-1.1c0.4-0.2,0.6-0.2,1,0l-0.4-0.5c-0.3,0-0.5-0.1-0.8-0.4l0.5-0.2c-0.5-0.7-1.5-1.1-1.8-2.3c-0.5,0.2-0.7,1.5-1.7,0.7c0.2-0.2,0.6-0.5,0.8-0.3c-0.1-0.1-0.4-0.2-0.4-0.4l0.7,0.2c-0.1-0.5-0.5,0-0.7-0.4c0.3-0.2,0.1-0.4,0.4-0.5c0.1,0.1,0.1,0.4,0.3,0.4c-0.2-0.4-0.3-1-0.1-1.4c-0.2,0.2-0.4,0.3-0.7,0c-0.5-0.7,0.2-0.5,0.1-1.1c-0.3,0-0.4-0.7-0.9-0.4c-0.1-0.2,0.1-0.4,0.1-0.6c-0.5-0.2-1.3-1.7-1.5-1l0,0.1c0,0,0,0-0.1,0l0,0l0,0c-1.3-0.9-1.5-2.8-2.5-3.9l0.2-0.1c-0.7-0.6-1.2-1.6-1.9-1.9c-0.1-0.2,0-0.7,0.2-0.7c-0.5-0.5-0.7-0.4-1-1.5c0.7,0.4,0.1-0.4,0.6,0.5c-0.3-0.8-0.2-1.3-1.3-1.7c0.6,0,0.1-1-0.3-1.2l0.1,0.7c-0.4-0.3-0.6-0.7-0.8-1l0.7-0.2c-0.3-1-1.1-1.3-1.7-1.7c-0.7-0.4-1.2-0.8-1-1.7c-0.6-0.1,0.2,0.9-0.5,0.9c-0.4-0.7,0.1-1.9,0-2.1c-0.2-1.1-1.3-0.5-1.7-1.7c-0.1,0.3-0.6,0.7-1.3,0c-0.4-0.8,0.2-1.5,0.7-1.1c0.1,0.2,0.1,0.3,0.1,0.3c0.2,0.2,0.5,0.5,0.5,0l-0.3,0c0-0.2-0.2-0.7-0.3-1c-0.1-0.3-0.1-0.5,0.1-0.5c-0.5-0.4-0.5,0-0.3,0.4c-0.3-1-0.9-1.4-1.2-2.4c0,0.2-0.2,0.5-0.3,0.3c-0.6-1.5-0.7-0.4-1.4-1.2c0-0.7,0.9-0.2,0.1-1c-0.1-0.7,0.5-0.4,0.8-0.3c-0.9-0.6-0.6-1.7-0.8-2.3l0.4,0.4c-0.2-0.2-0.4-0.4-0.5-0.7L51.2,17c-0.1-0.3-0.2-0.5,0-0.6c-0.4-0.1-0.6,0.6-1.3,0.2c0-0.5-0.8-1-0.3-1.4c0.4,1.2,0.5-0.4,1.1,0.5c-0.2-0.1-0.3-0.4-0.3-0.7c0-0.1,0.1,0,0.2,0c-0.1-1.3-0.9-0.2-1.5-1.3c0.4,0,0.5-0.6,0.3-0.7c0.2,0.5-0.4,0.5-0.9,0.2c-0.1-0.9-0.6-0.7-0.7-1.1l0.1,0.5c-0.4,0-0.5-0.4-0.9-0.8c0.2-0.2,0.4,0.4,0.4,0.1c-0.8-0.3,0-1.5-0.7-2.2c0.1-0.5,0.6-0.3,0.6-0.7c-0.8-0.7,0-1.2-0.8-2c-0.3,0.5-0.2,0.5-0.9,0l1,1.5l-1.1-0.7c0.2,0.5,0.7,0.9,0.8,1.2c-0.6-0.3-0.4-0.3-0.7,0.1c0.4-0.9-1-1.1-0.9-2.1l1.1-0.5c-0.1-0.7-0.5-1.2-0.9-1.7c-0.1-0.1-0.2-0.2-0.4-0.4c-0.2-0.2-0.3-0.4-0.5-0.6c-0.3-0.4-0.7-0.8-1-1.4c0,0,0.3,0.8,0.3,0.8c-0.5,0.1-0.9-1.1-1.5-1.4c0.2-0.4-0.1-0.8-0.3-1.4c0,0.1-0.1,0.1-0.2,0c-0.1,0-0.2,0-0.4,0c-0.2,0-0.4,0.1-0.5,0.2c-0.3,0.2-0.6,0.4-0.7,0.7c0,0-0.9-0.2-0.9-0.1c-0.9,0.4-1.2,1.1-1.4,1.7c-0.3,0.7-0.2,1-0.8,1.2c0.1-0.5-0.5-0.5-0.1-1.2c-0.2,0.2-0.6,0.3-0.5,0.5c-0.3-0.1-0.7,1-1.3,0.9c-0.1,0.3,0.1,0.6-0.3,0.9c-0.1,0-0.1-0.2-0.1-0.2C34.6,5.4,34,5.9,34.6,6c-0.9-0.1-1.6,0.6-2.2,1.3c-0.6,0.7-1.1,1.3-1.9,1.3c-0.5,0.7-1.2,1.5-1.8,2c0-0.1-0.1-0.2,0-0.2c-1.1,0.4,0.2,1.3-1.1,1.8c-0.9-0.1,0.3-0.7-0.2-0.6c-1-0.9-1.2,1.2-2.2,1.2l0.1-0.2c-0.8,0.1-0.9,1.4-1.8,2c0,0,0-0.1-0.1-0.2c-0.2,1-1.1,2-1.8,2.8c-0.1-0.6,0.2-0.5-0.3-0.8c-0.3,0.3,0.6,0.6,0,1.3c-0.4,0-1.1,0.2-1.5-0.2l0.7-0.6c-0.8-0.3-0.9,0.7-1.3,0.9L19,17.5c-1,0.9-0.6,1.5-1.7,2.4l0.3,0.1c-0.1,1.1-0.8,0.1-1,1l-0.7-0.5c-0.3,0.5-1,1.7-1.6,2.4c0.1-0.8,0.8-1.7,1.1-2.4c-0.4,0.3-1.3,1.1-1.3,1.6c0.1-0.2,0.2-0.5,0.4-0.5c-0.1,0.9-0.6,1.6-1.5,2.2c-0.8-1.3-2.4,1.3-3.7,0.8c-0.3,0.4-0.6,0.7-1,1C7.8,26,7.3,26.3,7,26.6c-0.4,0.3-0.8,0.6-1.2,0.8c-0.2,0.1-0.4,0.3-0.6,0.5l-0.3,0.3l-0.1,0.1l0,0c0.2,0.2,0.4,0.3,0.4,0.3c0,0.1,0,0.1,0,0.1c-0.1,0.1-0.4,0.3,0,0.8c-0.2,0.2-0.3,0.3-0.4,0.3C4.6,30,4.5,30,4.4,30c0,0-0.1,0-0.3,0.1c-0.2,0.1-0.6,0.1-0.8,0.3c-0.3,0.1-0.5,0.2-0.8,0.3c-0.2,0-0.3,0-0.4,0c-0.1,0-0.1,0-0.1,0c-0.3,0.1-0.3-0.1-0.2-0.2c0.3-0.1,0.5-0.3,0.3-0.4c-0.1,0.1-0.1,0.1-0.3,0.2c-0.1,0-0.2,0-0.3,0.1c-0.2,0.1-0.2,0.1-0.3,0.2c-0.2,0.1-0.3,0.1-0.4,0.1c-0.2,0-0.4-0.1-0.9,0.4c0.3,0,0.3,0.2,0.3,0.5c0,0.3-0.2,0.7-0.3,1.2c0,0,0-0.1,0.1-0.2c0.1-0.1,0.2-0.3,0.3-0.4c0.2-0.3,0.5-0.5,0.5-0.5c-0.1,0.5-0.2,0.9-0.2,1.2c0,0.3-0.1,0.5-0.2,0.7c-0.2,0.4-0.2,1.1,0.8,2.1c0,0-0.2-0.2-0.4-0.3c-0.2-0.2-0.4-0.3-0.4-0.3c0.5,0.6,1.2,1.7,2.2,2.6c0.2,0.2,0.5,0.4,0.7,0.5c0.2,0.1,0.4,0.2,0.6,0.3c0.4,0.2,0.7,0.2,1,0.1c0,0.2,0,0.6-0.4,0.4c0.8,0.7,1.9,1,2.8,1.4C8.2,40.6,9,41,9.4,41.7l-0.3,0.2c0.3,0.1,0.8-0.1,1,0.4c-0.1,0.1-0.3,0.1-0.2,0.3c0.2,0,1,0.2,1.3,0.6l-0.5,0c1.1,1.4,2.6,1.2,4,2C14,45.8,15,47,15.5,47.6l-0.1,0.1c0.4,0.4,0.9,0.7,1.3,0.9c0.4,0.2,0.8,0.4,1.2,0.6c0.8,0.4,1.6,0.7,2.5,1.2c0.3,1.5,2.8,3,4,4.8c-0.1-0.3,0.5-0.5,0.8-0.3c0.3,0.4,1.4,0.4,0.8,0.9l-0.1-0.1c-0.2,0.8,0.7,1.3,1.3,1.8l0.7-0.8c0.7,2.5,4.5,2.5,4.6,4.3c0.5,0.1,1,0.4,1.5,0.4l-0.3,0.4c1,0.9,1.4,1.3,2.7,2.1L35.9,64c0.7,0.6,1.9-0.6,2.5-0.1l-0.3,0.8c1.1,0.9,2,2.7,3.8,3c-0.1,0.1-0.3,0.3-0.5,0.1c0.3,0.2,0.9,0.8,1.4,1.2c0.3,0.2,0.4,0.2,0.6,0.2c0.2,0,0.3-0.1,0.5-0.4c-0.2,0.3,0,0.5,0.5,0.7c0.4,0.2,1.1,0.4,1.5,0.6l-0.5,0.3c1-0.1,1.2-0.2,2.2,0.3c0.2,0.2-0.1,0.5-0.3,0.2c0.6,0.8,0.8-0.1,1.5,0.7l-0.5,0.1c0.7,0.5,0.7,0.3,1.3,0.2c0.6,0.1,1.2,1,1,1.5c0.3-0.2,0.9-0.3,1.2,0.1c0,0.2-0.3,0.2-0.4,0.2c0.9,1.1,2.1,0.6,2.6,1.5c-0.1,0.2-0.1,0.3,0,0.4c-0.9-0.6-1.6-1.1-1.5-1.1c-0.3,0.4,0.4,1-0.6,1.2c0.8,0.1,2.3,0,2.9,0.7c0,0.1,0,0.1,0,0.2l-0.1,0c0.1,0.1,0.3,0.2,0.5,0.2c0.2,0.2,0.3,0.4,0.5,0.5c-0.1,0.4,0.7,0.7,1.1,1c0.3-0.5,0.7-0.1,0.5-0.8c0,0.1-0.1,0-0.4-0.1c-0.1,0-0.1-0.1-0.2,0c0,0,0,0,0.1,0c-0.2-0.1-0.6-0.3-0.9-0.6c0.4-0.1,0.9-0.1,1.1,0.5c0.4-0.2,0.8-0.4,1-0.4c0.1,1,0.9,2,0.7,2.4c1.3,0.4,2.8,1.5,4.1,1c0.4,0.1,0.2,0.5,0.3,0.7c-0.2,0-0.5-0.2-0.6-0.1c0.8,0.2,2,1.1,2.5,0.5c0.7,0.8-0.8,0.3,0.4,0.9L65,82.4c0.8,1.2,2,1.3,3.1,1.5l0.4,0.1c0.1,0,0.2,0,0.3,0c0.2,0,0.4,0.1,0.6,0.2c0.4,0.2,0.7,0.6,0.5,1c0-0.1,0.1-0.2,0.2-0.2c0.1,0.2,0.2,0.4,0.3,0.6c0.1,0.3-0.1,0.5-0.3,0.6c-0.4,0.3-0.7,0.7-1.2,1c-0.3,0.3-1.2,0.8-1.9,1.2c-0.4,0.2-0.8,0.5-1.2,0.7c-0.3,0.2-0.7,0.4-1.1,0.5c-0.8,0.4-0.6,0.8-0.9,1.4l-0.5-0.4l-0.4,1.1c-0.8,1.2-2.8,0.2-3.6,2l0.4,0.2c-0.5,0.3-1.4,1.4-1.6,1c0,0.1,0.1,0.5-0.2,0.4l-0.2-0.2L57,96.6c-0.6,0.4-0.7,0.1-1-0.1c-0.2-0.2-0.5-0.2-1,0.2c-0.1,0.1-0.1,0.2-0.1,0.3c0,0.1,0,0.1,0,0.2c0,0.1,0,0.1-0.1,0.2c-0.1,0.3-0.2,0.5-0.1,0.6c0.2,0,0.5,0.1,0.7,0.3c0,0-0.4,0.3-0.5,0.3c0.1,0.4,0.1,0.9,0.2,1.3c0.1,0.2,0.2,0.4,0.5,0.5c0.3,0.1,0.7,0.2,1.4-0.1c0,0,0.3-0.4,0.5-0.7c0.2-0.3,0.3-0.6,0.3-0.6l0.6,0.1c0,0-0.2,0.2-0.3,0.3c-0.2,0.2-0.4,0.4-0.4,0.4c0.8-0.1,0.7-0.7,0.8-1c0.2,0.1,0.4,0.2,0.5,0.2c0,0,0,0,0-0.1c0-0.1,0-0.3,0.1-0.4c0-0.3,0.1-0.6,0.1-0.6c0.3,0.2,0.1,0.8,0.8,0.6c0.1-0.6-0.9-0.4-0.4-1c0.6,0,0.7,0.4,1-0.2c0.2,0.1,0.2,0.3,0.1,0.5c0.2-0.5,0.9-0.9,0.8-1.4c0.7,0.1,1.2-1.1,1.7-0.4c0-0.3,0.3-1.1,0.6-1.4c-0.1,1.3,1.4-0.9,1.9,0.1c-0.1-1.1,1.6-1.7,2.2-2.9c0,0.1,0,0.3-0.1,0.3c0.3-0.2,0.5-0.2,0.7-0.3c0.2,0,0.3,0,0.5,0c-0.4-0.7,0.1-1.3,0.3-1.9c1,0.3,0.1,1,0.7,1.5c-0.2-0.3,0-0.5,0.2-0.8c0.1-0.1,0.2-0.3,0.3-0.4c0.1-0.1,0.1-0.3-0.1-0.3c1.1-0.1,0.8-0.2,1.7,0c-0.3-0.4-0.1-0.5,0.1-0.7c0.2-0.2,0.6-0.4,0.6-0.7c0.7-0.3,1-0.3,1.2-0.3c0.2,0,0.3-0.1,0.6-0.7C75,87,74.8,88.2,74.8,88.2z M56.4,73.4C56.4,73.4,56.4,73.4,56.4,73.4c0.2,0.1,0.3,0.2,0.4,0.2C56.8,73.6,56.6,73.5,56.4,73.4z M54.9,72.4c0.2,0.1,0.4,0.3,0.7,0.4c-0.1,0.2-0.2,0.3-0.4,0.2C55.3,73,55,72.7,54.9,72.4z M56.1,77.8c-0.3-0.1-0.3-0.2-0.3-0.4c0.1,0.1,0.3,0.1,0.5,0.2c0,0,0,0,0.1,0C56.3,77.7,56.2,77.8,56.1,77.8z" class="color-1"/><path fill="#FC60AE" d="M56.9,77.5c0,0,0.1,0,0.1,0c0-0.1-0.1-0.1-0.1-0.2c-0.1,0-0.1,0.1-0.2,0.1C56.8,77.4,56.9,77.4,56.9,77.5z" class="color-1"/><path fill="#FC60AE" d="M66.1,42.6L66.1,42.6C66.1,42.6,66.1,42.6,66.1,42.6C66.1,42.6,66.1,42.6,66.1,42.6z" class="color-1"/><polygon fill="#FC60AE" points="35.2,56.5 35.1,56.6 35.3,56.6 " class="color-1"/><path fill="#FC60AE" d="M70,52.2c0,0,0,0.1,0,0.2C70,52.3,70,52.3,70,52.2z" class="color-1"/><path fill="#FC60AE" d="M72.7,55.8c0,0,0.2,0.6,0.2,0.6C72.8,56.1,72.8,56,72.7,55.8z" class="color-1"/><path fill="#FC60AE" d="M74.3,58.5c0.1,0,0.2,0,0.2-0.1l0,0L74.3,58.5z" class="color-1"/><path fill="#FC60AE" d="M44.6,14c0,0,0-0.1-0.1-0.1C44.3,13.6,44.4,13.8,44.6,14z" class="color-1"/><path fill="#FC60AE" d="M53.5,27.2c-0.2-0.1-0.3-0.2-0.5-0.3C53.1,27.2,53.2,27.4,53.5,27.2z" class="color-1"/><path fill="#FC60AE" d="M37.4,8.1C37.4,8.1,37.4,8.1,37.4,8.1L37.4,8.1L37.4,8.1z" class="color-1"/><path fill="#FC60AE" d="M52.7,26.3c0,0.3,0.2,0.5,0.3,0.6C53,26.7,52.9,26.5,52.7,26.3z" class="color-1"/><path fill="#FC60AE" d="M82.7,70.5l0.1,0.1c0,0,0.1,0,0.1,0L82.7,70.5z" class="color-1"/><path fill="#FC60AE" d="M82.9,70.6l0.2,0.1C83,70.7,82.9,70.6,82.9,70.6z" class="color-1"/><path fill="#FC60AE" d="M83.4,70.9L83,70.7C83.1,70.8,83.2,71,83.4,70.9z" class="color-1"/><path fill="#FC60AE" d="M80.3,66.4l-0.2,0C80.1,66.4,80.2,66.4,80.3,66.4z" class="color-1"/><path fill="#FC60AE" d="M79.7,65.5c0.1,0.2-0.1,0.7,0.2,1l0.2,0C79.7,66.4,80.1,65.4,79.7,65.5z" class="color-1"/><path fill="#FC60AE" d="M78.1,59.8c0,0,0.1,0.2,0.2,0.5c0.1,0.2,0.3,0.5,0.3,0.5c0.1-0.3,0.2-0.6,0.5-0.3C78.8,59,78.8,61,78.1,59.8z" class="color-1"/><path fill="#FC60AE" d="M76.4,56.7c0.4,0.5,0.3-0.2,0.4-0.2C76.4,56.2,76.3,56.2,76.4,56.7z" class="color-1"/><path fill="#FC60AE" d="M62.1,35.8l0.5-0.2C62.2,35.2,62.4,35.7,62.1,35.8z" class="color-1"/><polygon fill="#FC60AE" points="57.1,33.4 57.1,34 57.6,33.8 " class="color-1"/><polygon fill="#FC60AE" points="58.1,29 58.3,29.1 57.8,28.6 " class="color-1"/><path fill="#FC60AE" d="M30.7,7.5l0.6,0.3C31.4,7.5,30.9,7,30.7,7.5z" class="color-1"/><path fill="#FC60AE" d="M17.2,19.6c-0.4-0.1-0.9,0.1-0.9,0.5C16.5,19.8,17,19.7,17.2,19.6z" class="color-1"/><polygon fill="#FC60AE" points="28.2,57.8 27.8,57.8 28.5,58.1 " class="color-1"/></g></svg>