<svg version="1.1" id="Layer_1" xmlns="http://www.w3.org/2000/svg" xmlns:xlink="http://www.w3.org/1999/xlink" x="0px" y="0px" viewBox="0 0 126.5 25.2" enable-background="new 0 0 126.5 25.2" xml:space="preserve" data-svg-colors="#F2B705" width="3244.3405601077443" height="637.2522911835381"><g id="ry" transform="scale(1,1)"><polygon fill="#24c4b4" points="0,0 7,9.7 0,20.3 30.5,20.3 30.5,0 " class="color-1"></polygon><polygon fill="#24c4b4" points="22,6.2 30.5,0 30.5,17.3 25.9,17.3 " class="color-1"></polygon><polygon fill="#24c4b4" points="126.5,0 119.5,9.7 126.5,20.3 96,20.3 96,0 " class="color-1"></polygon><polygon opacity="0.15" points="0,0 7,9.7 0,20.3 30.5,20.3 30.5,0 "></polygon><polygon opacity="0.15" points="126.5,0 119.5,9.7 126.5,20.3 96,20.3 96,0 "></polygon><polygon fill="#24c4b4" points="104.5,6.2 96,0 96,17.3 100.6,17.3 " class="color-1"></polygon><polygon opacity="0.25" points="22,6.2 30.5,0 30.5,17.3 25.9,17.3 "></polygon><polygon opacity="0.25" points="104.5,6.2 96,0 96,17.3 100.6,17.3 "></polygon><polygon fill="#24c4b4" points="99.4,25.2 27,25.2 21.9,6.2 104.6,6.2 " class="color-1"></polygon></g></svg>