<svg version="1.1" xmlns="http://www.w3.org/2000/svg" xmlns:xlink="http://www.w3.org/1999/xlink" x="0px" y="0px"
	 viewBox="0 0 595.3 450.2" enable-background="new 0 0 595.3 450.2" xml:space="preserve">
<g id="ry" transform="translate(0,0) scale(1,1)">
	<path fill="#F0674F" class="color-1" data-color="#F0674F" d="M296.7,450.2c-4.1,0-6.1-2-8.2-4.1c-4.1-4.1-2-10.2,2-14.3l272.1-206.6L290.6,18.6
		c-4.1-4.1-6.1-10.2-2-14.3c4.1-4.1,10.2-6.1,14.3-2l292.5,223l-292.5,223C300.8,450.2,298.8,450.2,296.7,450.2z M16.5,448.2
		l292.5-223L16.5,2.2c-4.1-4.1-10.2-2-14.3,2c-4.1,4.1-2,10.2,2,14.3l272.1,206.6L4.2,431.8c-4.1,4.1-6.1,10.2-2,14.3
		c2,2,4.1,4.1,8.2,4.1C12.4,450.2,14.4,450.2,16.5,448.2z"/>
</g>
</svg>
