<?xml version="1.0" encoding="utf-8"?>
<!-- Generator: Adobe Illustrator 16.0.0, SVG Export Plug-In . SVG Version: 6.00 Build 0)  -->
<!DOCTYPE svg PUBLIC "-//W3C//DTD SVG 1.1//EN" "http://www.w3.org/Graphics/SVG/1.1/DTD/svg11.dtd">
<svg version="1.1" id="flbook" xmlns="http://www.w3.org/2000/svg" xmlns:xlink="http://www.w3.org/1999/xlink" x="0px" y="0px"
	 width="93.391px" height="95.564px" viewBox="0 0 93.391 95.564" enable-background="new 0 0 93.391 95.564" xml:space="preserve">
<path fill="#08A1EF" d="M93.39,10.607l-9.663-9.663l-0.908-0.908L82.783,0l-0.908,0.908l0.035,0.036l-9.698,9.698l0.908,0.907
	l9.371-9.369c0.521,7.026,2.396,44.479-15.19,58.202c-4.576,3.573-10.135,5.274-16.628,5.099
	c4.718-13.268-3.464-24.532-3.608-24.718c-4.913-4.913-10.571-6.503-15.523-4.361c-4.852,2.098-8.122,7.439-7.951,12.992
	c0.191,6.204,4.479,11.271,11.767,13.902c4.999,1.807,9.645,2.848,13.925,3.124c-1.46,3.454-3.753,6.749-6.871,9.868
	C25.365,93.334,15.017,94.564,0,94.564v1c14.829,0,25.841-1.293,43.117-18.568c3.522-3.521,5.796-7.081,7.18-10.522
	c6.854,0.252,12.768-1.516,17.621-5.304c10.361-8.086,14.012-24.056,15.251-36.028c1.04-10.042,0.605-19.027,0.354-22.585
	l8.958,8.959L93.39,10.607z M49.566,65.488c-4.274-0.237-8.94-1.265-13.976-3.083c-6.881-2.485-10.929-7.221-11.106-12.994
	c-0.158-5.152,2.864-10.104,7.349-12.043c1.024-0.443,2.45-0.862,4.172-0.862c2.781,0,6.333,1.096,10.199,4.957
	c0.033,0.044,3.33,4.535,4.481,11.055C51.482,57.038,51.106,61.373,49.566,65.488z"/>
</svg>
