<svg version="1.1" xmlns="http://www.w3.org/2000/svg" xmlns:xlink="http://www.w3.org/1999/xlink" x="0px" y="0px" viewBox="0 0 80.3 126.9" enable-background="new 0 0 80.3 126.9" xml:space="preserve" data-svg-colors="#FC60AE"><g id="ry" transform="scale(1,1)"><path fill="#FC60AE" d="M0.6,67.3c-0.1,0.2-0.2,0.5-0.1,0.8c0.5,4.8,2.7,9.8,4.1,14.4c1.4,4.8,2.9,9.6,4.3,14.4l8.6,28.8c0.3,1,1.3,1.5,2.2,1.1c8.6-4.1,17.2-8.2,25.8-12.3c4.1-2,8.2-3.9,12.3-5.9c3.3-1.6,8.9-3.1,10.9-6.3c0.1-0.1,0.1-0.2,0.1-0.3c0.2,0,0.4,0.1,0.7,0.1c0.8,0.1,1.1-0.9,0.7-1.4c-2.1-3.1-6.7-4.8-9.8-6.8C57.1,92,54,89.5,50.7,88C56,77,60.3,65.3,65,54c2.5-5.9,4.9-11.8,7.4-17.8c2.3-5.6,5.6-11.5,7-17.3c2-1.5,0.5-4.6-0.9-5.8c-3.4-2.8-8.9-4.3-12.9-6c-5.3-2.3-10.7-4.9-16.1-7c-1.2-0.5-2.2,1-1.9,2c-0.1,0.1-0.1,0.2-0.2,0.4c-4.4,11.8-8.2,23.8-12.5,35.7c-2.1,5.8-4.2,11.6-6.4,17.4c-2.1,5.7-4.6,11.4-6.3,17.3c-3.3-1.8-6.7-3.2-10.1-4.6c-3.4-1.3-7.1-2.9-10.7-3.4C0.1,64.7-0.6,66.7,0.6,67.3z M10.6,71c3.6,1.4,7.1,2.9,10.7,4.4c0.5,0.2,1,0,1.3-0.3c0.5,0.4,1.3,0.4,1.6-0.3c2.7-5.4,4.7-11.3,6.8-16.9c2.3-6,4.5-12,6.6-18.1c4.3-11.9,8.9-23.9,12.5-36c4.4,2,8.8,3.9,13.3,5.8c2.5,1.1,5,2.2,7.4,3.2c1.2,0.5,2.5,1,3.7,1.6c1.6,0.8,2.4,1.6,2.7,2.8c0,0-0.1,0.1-0.1,0.1c-3.2,5-5,11.3-7.2,16.7C67.4,40,65,45.9,62.5,51.8c-4.9,11.8-10.5,23.5-14.6,35.6c-0.2,0.5,0,1,0.4,1.4c0,0.3,0.1,0.6,0.3,0.9c2.8,3,7,5,10.5,7.2c2.3,1.4,4.8,3.4,7.4,4.5c-3.2,0.4-6.8,2.9-9.6,4.2c-4.3,2-8.6,4.1-12.9,6.1c-8,3.8-16.1,7.7-24.1,11.5l-8.2-27.6c-1.4-4.8-2.9-9.6-4.3-14.4c-1.2-4.1-2.1-8.7-3.8-12.7C5.8,69.4,8.3,70.1,10.6,71z" class="color-1"/></g></svg>